<svg xmlns="http://www.w3.org/2000/svg" xmlns:xlink="http://www.w3.org/1999/xlink" width="1920" zoomAndPan="magnify" viewBox="0 0 1440 809.999993" height="1080" preserveAspectRatio="xMidYMid meet" version="1.2"><defs><clipPath id="8a3c72aa32"><path d="M 1102 157 L 1360 157 L 1360 336 L 1102 336 Z M 1102 157 "/></clipPath><clipPath id="385355c856"><path d="M 1152.414062 -49.339844 L 1404.769531 235.101562 L 1162.402344 450.128906 L 910.050781 165.683594 Z M 1152.414062 -49.339844 "/></clipPath><clipPath id="0551a9c1d9"><path d="M 1152.414062 -49.339844 L 1404.769531 235.101562 L 1162.402344 450.128906 L 910.050781 165.683594 Z M 1152.414062 -49.339844 "/></clipPath><clipPath id="ee02d96aa2"><path d="M 998 83 L 1077 83 L 1077 341 L 998 341 Z M 998 83 "/></clipPath><clipPath id="40239d7a7f"><path d="M 1152.414062 -49.339844 L 1404.769531 235.101562 L 1162.402344 450.128906 L 910.050781 165.683594 Z M 1152.414062 -49.339844 "/></clipPath><clipPath id="d521d765b7"><path d="M 1152.414062 -49.339844 L 1404.769531 235.101562 L 1162.402344 450.128906 L 910.050781 165.683594 Z M 1152.414062 -49.339844 "/></clipPath><clipPath id="ac6425cb46"><path d="M 1121 67 L 1173 67 L 1173 238 L 1121 238 Z M 1121 67 "/></clipPath><clipPath id="b8f5b3adbd"><path d="M 1152.414062 -49.339844 L 1404.769531 235.101562 L 1162.402344 450.128906 L 910.050781 165.683594 Z M 1152.414062 -49.339844 "/></clipPath><clipPath id="fc06122058"><path d="M 1152.414062 -49.339844 L 1404.769531 235.101562 L 1162.402344 450.128906 L 910.050781 165.683594 Z M 1152.414062 -49.339844 "/></clipPath><clipPath id="ca1be4b8d4"><path d="M 1102 326 L 1262 326 L 1262 382 L 1102 382 Z M 1102 326 "/></clipPath><clipPath id="07a9d30e8b"><path d="M 1152.414062 -49.339844 L 1404.769531 235.101562 L 1162.402344 450.128906 L 910.050781 165.683594 Z M 1152.414062 -49.339844 "/></clipPath><clipPath id="ae7e859de8"><path d="M 1152.414062 -49.339844 L 1404.769531 235.101562 L 1162.402344 450.128906 L 910.050781 165.683594 Z M 1152.414062 -49.339844 "/></clipPath><clipPath id="1c8d709f3f"><path d="M 1069 15 L 1105 15 L 1105 44 L 1069 44 Z M 1069 15 "/></clipPath><clipPath id="0ab202a2e6"><path d="M 1152.414062 -49.339844 L 1404.769531 235.101562 L 1162.402344 450.128906 L 910.050781 165.683594 Z M 1152.414062 -49.339844 "/></clipPath><clipPath id="af2e58f742"><path d="M 1152.414062 -49.339844 L 1404.769531 235.101562 L 1162.402344 450.128906 L 910.050781 165.683594 Z M 1152.414062 -49.339844 "/></clipPath><clipPath id="8e5353daa4"><path d="M 1264 297 L 1283 297 L 1283 318 L 1264 318 Z M 1264 297 "/></clipPath><clipPath id="675a2db2ad"><path d="M 1152.414062 -49.339844 L 1404.769531 235.101562 L 1162.402344 450.128906 L 910.050781 165.683594 Z M 1152.414062 -49.339844 "/></clipPath><clipPath id="c4109bec11"><path d="M 1152.414062 -49.339844 L 1404.769531 235.101562 L 1162.402344 450.128906 L 910.050781 165.683594 Z M 1152.414062 -49.339844 "/></clipPath><clipPath id="bf943b1005"><path d="M 954 441 L 1042 441 L 1042 525 L 954 525 Z M 954 441 "/></clipPath><clipPath id="8b0dda273d"><path d="M 992.21875 405 L 1078.886719 479.054688 L 868.417969 725.382812 L 781.746094 651.328125 Z M 992.21875 405 "/></clipPath><clipPath id="24b89e26dc"><path d="M 992.21875 405 L 1078.886719 479.054688 L 868.417969 725.382812 L 781.746094 651.328125 Z M 992.21875 405 "/></clipPath><clipPath id="b3b925dd52"><path d="M 900 505 L 988 505 L 988 589 L 900 589 Z M 900 505 "/></clipPath><clipPath id="98f83b4435"><path d="M 992.21875 405 L 1078.886719 479.054688 L 868.417969 725.382812 L 781.746094 651.328125 Z M 992.21875 405 "/></clipPath><clipPath id="f6b6a0ae4e"><path d="M 992.21875 405 L 1078.886719 479.054688 L 868.417969 725.382812 L 781.746094 651.328125 Z M 992.21875 405 "/></clipPath><clipPath id="121341ea13"><path d="M 845 569 L 934 569 L 934 652 L 845 652 Z M 845 569 "/></clipPath><clipPath id="dab885aacf"><path d="M 992.21875 405 L 1078.886719 479.054688 L 868.417969 725.382812 L 781.746094 651.328125 Z M 992.21875 405 "/></clipPath><clipPath id="911548d46f"><path d="M 992.21875 405 L 1078.886719 479.054688 L 868.417969 725.382812 L 781.746094 651.328125 Z M 992.21875 405 "/></clipPath><clipPath id="bdc784c503"><path d="M 791 632 L 879 632 L 879 716 L 791 716 Z M 791 632 "/></clipPath><clipPath id="c73fb6efb6"><path d="M 992.21875 405 L 1078.886719 479.054688 L 868.417969 725.382812 L 781.746094 651.328125 Z M 992.21875 405 "/></clipPath><clipPath id="148f88bd34"><path d="M 992.21875 405 L 1078.886719 479.054688 L 868.417969 725.382812 L 781.746094 651.328125 Z M 992.21875 405 "/></clipPath><clipPath id="f36ec0f884"><path d="M 574 78 L 912 78 L 912 319 L 574 319 Z M 574 78 "/></clipPath><clipPath id="89507abfcd"><path d="M 568.675781 82.546875 L 822.546875 7.433594 L 914.46875 318.121094 L 660.597656 393.234375 Z M 568.675781 82.546875 "/></clipPath><clipPath id="0ffba8b27a"><path d="M 568.675781 82.546875 L 822.546875 7.433594 L 914.46875 318.121094 L 660.597656 393.234375 Z M 568.675781 82.546875 "/></clipPath><clipPath id="c2370dfe96"><path d="M 599 172 L 849 172 L 849 338 L 599 338 Z M 599 172 "/></clipPath><clipPath id="e2b123198f"><path d="M 568.675781 82.546875 L 822.546875 7.433594 L 914.46875 318.121094 L 660.597656 393.234375 Z M 568.675781 82.546875 "/></clipPath><clipPath id="9552606c83"><path d="M 568.675781 82.546875 L 822.546875 7.433594 L 914.46875 318.121094 L 660.597656 393.234375 Z M 568.675781 82.546875 "/></clipPath><clipPath id="87c37ad00b"><path d="M 638 307 L 762 307 L 762 365 L 638 365 Z M 638 307 "/></clipPath><clipPath id="c54bcbcf3d"><path d="M 568.675781 82.546875 L 822.546875 7.433594 L 914.46875 318.121094 L 660.597656 393.234375 Z M 568.675781 82.546875 "/></clipPath><clipPath id="432a2037c0"><path d="M 568.675781 82.546875 L 822.546875 7.433594 L 914.46875 318.121094 L 660.597656 393.234375 Z M 568.675781 82.546875 "/></clipPath><clipPath id="a34c78d152"><path d="M 1116 561.75 L 1440 561.75 L 1440 810 L 1116 810 Z M 1116 561.75 "/></clipPath><clipPath id="1c0412f877"><path d="M 276 413 L 298 413 L 298 461.542969 L 276 461.542969 Z M 276 413 "/></clipPath><clipPath id="aeaf063231"><path d="M 80 526 L 225 526 L 225 603 L 80 603 Z M 80 526 "/></clipPath><clipPath id="92cf55d63c"><path d="M 173.300781 809.519531 L 53.644531 545.082031 L 208.753906 474.894531 L 328.410156 739.332031 Z M 173.300781 809.519531 "/></clipPath><clipPath id="ee112ec786"><path d="M 173.300781 809.519531 L 53.644531 545.082031 L 208.753906 474.894531 L 328.410156 739.332031 Z M 173.300781 809.519531 "/></clipPath><clipPath id="0581af6d48"><path d="M 118 610 L 238 610 L 238 728 L 118 728 Z M 118 610 "/></clipPath><clipPath id="6cd5c2786c"><path d="M 173.300781 809.519531 L 53.644531 545.082031 L 208.753906 474.894531 L 328.410156 739.332031 Z M 173.300781 809.519531 "/></clipPath><clipPath id="589680269e"><path d="M 173.300781 809.519531 L 53.644531 545.082031 L 208.753906 474.894531 L 328.410156 739.332031 Z M 173.300781 809.519531 "/></clipPath><clipPath id="11135bf32e"><path d="M 244 626 L 324 626 L 324 760 L 244 760 Z M 244 626 "/></clipPath><clipPath id="4648e2764f"><path d="M 173.300781 809.519531 L 53.644531 545.082031 L 208.753906 474.894531 L 328.410156 739.332031 Z M 173.300781 809.519531 "/></clipPath><clipPath id="5c136da360"><path d="M 173.300781 809.519531 L 53.644531 545.082031 L 208.753906 474.894531 L 328.410156 739.332031 Z M 173.300781 809.519531 "/></clipPath><filter x="0%" y="0%" width="100%" filterUnits="objectBoundingBox" id="2ef71b40f3" height="100%"><feColorMatrix values="0 0 0 0 1 0 0 0 0 1 0 0 0 0 1 0 0 0 1 0" type="matrix" in="SourceGraphic"/></filter><clipPath id="0d2177e015"><rect x="0" width="1440" y="0" height="810"/></clipPath></defs><g id="f0ad17fad3"><rect x="0" width="1440" y="0" height="809.999993" style="fill:#ffffff;fill-opacity:1;stroke:none;"/><rect x="0" width="1440" y="0" height="809.999993" style="fill:#ffffff;fill-opacity:1;stroke:none;"/><path style=" stroke:none;fill-rule:nonzero;fill:#5fcfba;fill-opacity:1;" d="M 165.867188 0.0351562 L 161.90625 4.246094 C 155.507812 11.046875 149.304688 21.101562 146.707031 28.886719 C 143.183594 39.4375 146.855469 50.023438 157.265625 59.3125 C 161.964844 63.503906 165.742188 66.050781 179.878906 74.566406 C 196.191406 84.390625 201.730469 87.871094 206.285156 91.164062 C 210.433594 94.167969 215.433594 98.804688 215.433594 99.65625 C 215.433594 100.847656 205.566406 101.492188 192.425781 101.164062 C 178.175781 100.804688 158.90625 101.5625 150.855469 102.796875 C 144.296875 103.804688 135.34375 106.121094 129.917969 108.214844 C 123.816406 110.574219 119.511719 113.292969 115.230469 117.496094 C 111.867188 120.796875 111.046875 122.023438 108.054688 128.214844 C 106.195312 132.058594 103.679688 138.027344 102.464844 141.480469 C 98.652344 152.316406 96.824219 154.9375 90.957031 157.957031 C 87.78125 159.589844 81.703125 160.132812 74.019531 159.46875 C 65.800781 158.753906 57.269531 159.148438 49.152344 160.617188 C 34.832031 163.203125 27.058594 167.242188 18.242188 176.6875 C 12.792969 182.519531 5.78125 194.71875 1.894531 205.121094 L 0 210.195312 L 0.0664062 237.800781 C 0.105469 254.5 0.300781 264.269531 0.5625 262.53125 C 1.324219 257.441406 2.953125 237.371094 3.648438 224.5 C 3.980469 218.390625 4.457031 214.542969 5.226562 211.808594 C 7.628906 203.277344 15.300781 188.347656 20.574219 181.953125 C 23.933594 177.882812 30.347656 172.601562 34.4375 170.539062 C 38.472656 168.503906 43.246094 167.097656 50.277344 165.867188 C 58.960938 164.351562 64.339844 164.101562 73.199219 164.800781 C 86.324219 165.832031 93.089844 164.265625 99.195312 158.773438 C 102.339844 155.945312 103.808594 153.269531 106.878906 144.769531 C 109.957031 136.238281 113.488281 128.277344 115.484375 125.378906 C 120.980469 117.390625 130.714844 112.269531 146.410156 109.105469 C 156.75 107.023438 163.457031 106.589844 187.460938 106.453125 C 212.125 106.3125 218.550781 105.832031 220.519531 103.980469 C 223.566406 101.117188 220.566406 95.457031 212.859375 89.53125 C 206.109375 84.339844 201.371094 81.304688 179.09375 67.875 C 173.339844 64.410156 166.984375 60.335938 164.96875 58.828125 C 160.757812 55.671875 156.085938 50.933594 154.128906 47.835938 C 152.378906 45.058594 150.59375 39.242188 150.59375 36.304688 C 150.59375 29.035156 158.613281 14.945312 168.191406 5.394531 L 173.5625 0.0351562 Z M 193.535156 0.0351562 L 189.6875 3.128906 C 181.628906 9.613281 175.070312 18.929688 173.570312 26.027344 C 172.578125 30.71875 173.546875 36.191406 176.425781 42.09375 C 180.164062 49.769531 185.707031 55.378906 199.222656 65.160156 C 211.886719 74.324219 229.050781 88.839844 238.347656 98.242188 C 243.054688 103.003906 246.363281 107.34375 247.035156 109.644531 C 247.320312 110.625 247.101562 110.78125 245.121094 111.03125 C 243.894531 111.1875 237.945312 112.019531 231.90625 112.886719 C 225.867188 113.753906 218.808594 114.617188 216.21875 114.804688 C 176.164062 117.695312 160.03125 119.730469 147.410156 123.476562 C 137.871094 126.3125 134.140625 128.773438 128.96875 135.65625 C 125.449219 140.339844 117.773438 155.027344 115.382812 161.660156 C 111.335938 172.886719 108.777344 175.675781 100.804688 177.554688 C 96.28125 178.621094 93.324219 178.542969 80.734375 177.035156 C 60.027344 174.554688 52.71875 175.546875 41.476562 182.351562 C 34.1875 186.765625 31.351562 188.832031 27.261719 192.707031 C 20.59375 199.023438 17.746094 204.558594 14.894531 216.777344 C 12.328125 227.761719 11.9375 237.207031 13.398438 253.117188 C 15.105469 271.738281 14.527344 279.878906 11.1875 284.257812 C 9.320312 286.703125 7.796875 287.421875 3.53125 287.867188 L 0 288.234375 L 0 323.835938 L 8.496094 323.574219 C 18.65625 323.265625 23.121094 322.15625 32.160156 317.683594 C 42.308594 312.660156 48.617188 306.839844 52.460938 298.953125 C 57.535156 288.535156 57.609375 278.257812 52.746094 259.917969 C 50.191406 250.289062 49.210938 245.519531 48.566406 239.570312 C 47.984375 234.21875 48.015625 233.769531 49.34375 228.523438 C 50.746094 222.984375 54.453125 214.597656 56.433594 212.488281 C 58.628906 210.148438 62.808594 210.335938 75.789062 213.355469 C 85.820312 215.691406 90.21875 216.167969 98.503906 215.835938 C 109.855469 215.375 117.695312 213.332031 126.921875 208.421875 C 134.851562 204.203125 140.035156 199.429688 145.46875 191.34375 C 150.472656 183.890625 153.609375 176.390625 156.101562 165.90625 C 156.804688 162.949219 157.882812 159.363281 158.496094 157.9375 C 159.808594 154.878906 162.792969 152.015625 166.191406 150.550781 C 169.328125 149.203125 176.878906 147.226562 182.230469 146.355469 C 187.53125 145.492188 202.78125 145.554688 219.355469 146.507812 C 242.289062 147.832031 253.609375 147.234375 266.679688 144.019531 C 276.082031 141.707031 285.519531 137.40625 291.804688 132.570312 C 304.46875 122.824219 306.757812 107.300781 297.785156 91.988281 C 292.757812 83.40625 280.90625 71.09375 266.679688 59.675781 C 254.070312 49.554688 247.339844 42.675781 244.140625 36.640625 C 243.09375 34.664062 242.894531 33.527344 242.890625 29.570312 C 242.886719 25.128906 242.988281 24.691406 244.59375 22.1875 C 246.515625 19.195312 251.113281 14.644531 254.652344 12.234375 C 259.125 9.1875 265.398438 6.335938 276.351562 2.363281 L 282.625 0.0898438 L 238.082031 0.0625 Z M 193.535156 0.0351562 "/><path style=" stroke:none;fill-rule:nonzero;fill:#3b9e8c;fill-opacity:1;" d="M 387.375 465.148438 C 376.703125 483.769531 381.257812 507.53125 387.199219 528.328125 C 393.140625 549.128906 400.167969 571.429688 393.519531 591.992188 C 391.511719 598.210938 388.269531 604.128906 387.800781 610.671875 C 386.902344 623.167969 396.707031 634.261719 407.914062 638.71875 C 419.117188 643.179688 431.488281 642.582031 443.472656 642.335938 C 455.457031 642.089844 468.003906 642.398438 478.550781 648.359375 C 499.949219 660.457031 505.296875 690.589844 523.535156 707.421875 C 537.386719 720.207031 557.335938 723.726562 575.652344 721.167969 C 593.972656 718.613281 611.148438 710.683594 628.039062 702.839844 C 653.054688 691.226562 678.261719 679.496094 700.550781 662.894531 C 721.277344 647.453125 739.554688 627.367188 749.144531 602.726562 C 758.734375 578.082031 758.640625 548.515625 745.089844 526 C 733.972656 507.53125 714 492.683594 713.402344 470.871094 C 713.050781 458.054688 719.867188 445.492188 717.632812 432.882812 C 712.523438 404.085938 673.246094 399.757812 651.308594 402.933594 C 625.0625 406.738281 603.136719 422.191406 584.816406 441.402344 C 572.964844 453.832031 561.753906 469.386719 543.976562 471.890625 C 517.484375 475.621094 490.472656 455.417969 466.265625 447.199219 C 440.179688 438.339844 403.597656 436.851562 387.375 465.148438 "/><g clip-rule="nonzero" clip-path="url(#8a3c72aa32)"><g clip-rule="nonzero" clip-path="url(#385355c856)"><g clip-rule="nonzero" clip-path="url(#0551a9c1d9)"><path style=" stroke:none;fill-rule:nonzero;fill:#3b9e8c;fill-opacity:1;" d="M 1328.03125 158.488281 L 1327.53125 158.433594 L 1328.132812 158.683594 C 1325.808594 158.769531 1323.488281 158.714844 1321.171875 158.523438 C 1313.335938 157.445312 1305.480469 158.277344 1297.640625 158.175781 C 1295.882812 158.191406 1294.15625 158.417969 1292.457031 158.855469 C 1283.679688 160.933594 1274.789062 162.570312 1266.195312 165.347656 C 1262.042969 166.691406 1258.054688 168.558594 1253.875 169.78125 C 1245.515625 172.472656 1237.683594 176.253906 1230.375 181.117188 C 1228.152344 182.5 1225.804688 183.683594 1223.597656 185.082031 C 1220.160156 187.265625 1216.691406 189.425781 1213.421875 191.84375 C 1211.320312 193.386719 1209.660156 195.5 1207.640625 197.160156 C 1199.011719 204.121094 1191.035156 211.761719 1183.707031 220.082031 C 1179.863281 224.84375 1175.699219 229.308594 1171.21875 233.476562 C 1166.121094 238.25 1161.5625 243.492188 1157.542969 249.203125 C 1155.941406 251.265625 1154.882812 253.785156 1153.152344 255.710938 C 1148.910156 260.898438 1145.046875 266.355469 1141.5625 272.082031 C 1139.277344 275.453125 1136.863281 278.742188 1134.671875 282.175781 C 1126.84375 294.441406 1119.09375 306.753906 1111.308594 319.035156 C 1108.660156 323.21875 1105.921875 327.339844 1103.347656 331.574219 C 1102.859375 332.617188 1102.539062 333.707031 1102.386719 334.847656 C 1102.371094 335.160156 1102.480469 335.417969 1102.710938 335.628906 C 1102.949219 335.8125 1103.21875 335.875 1103.511719 335.808594 C 1106.175781 334.625 1108.621094 333.089844 1110.847656 331.207031 C 1116.582031 326.730469 1122.839844 322.996094 1128.964844 319.101562 C 1134.847656 315.363281 1141.367188 312.664062 1146.925781 308.359375 C 1147.410156 308.03125 1147.929688 307.769531 1148.480469 307.585938 C 1153.570312 305.402344 1158.457031 302.828125 1163.136719 299.871094 C 1165.914062 298.257812 1168.8125 296.902344 1171.828125 295.796875 C 1178.632812 293.234375 1185.515625 290.875 1192.375 288.457031 C 1193.46875 288.042969 1194.582031 287.710938 1195.722656 287.460938 C 1200.546875 286.308594 1205.179688 284.621094 1209.613281 282.398438 C 1213.234375 280.4375 1217.089844 279.199219 1221.179688 278.695312 C 1222.359375 278.628906 1223.464844 278.296875 1224.492188 277.703125 C 1228.136719 275.773438 1232.003906 274.558594 1236.097656 274.058594 C 1237.820312 273.757812 1239.472656 273.238281 1241.058594 272.496094 C 1242.921875 271.671875 1244.820312 270.949219 1246.761719 270.324219 C 1252.53125 268.332031 1258.511719 266.808594 1264.050781 264.308594 C 1271.996094 260.726562 1279.722656 256.621094 1287.351562 252.382812 C 1291.105469 250.097656 1295.109375 248.40625 1299.363281 247.304688 L 1299.027344 247.378906 C 1303.3125 245.546875 1307.484375 243.359375 1311.910156 241.964844 C 1319.601562 239.230469 1326.96875 235.796875 1334.011719 231.667969 C 1337.046875 229.929688 1339.914062 227.949219 1342.609375 225.71875 C 1345.910156 222.847656 1348.980469 219.742188 1351.8125 216.40625 C 1353.785156 214.242188 1355.410156 211.84375 1356.6875 209.207031 C 1357.96875 206.570312 1358.84375 203.808594 1359.324219 200.917969 C 1359.664062 199.429688 1359.863281 197.921875 1359.917969 196.398438 C 1359.972656 194.871094 1359.878906 193.355469 1359.644531 191.84375 C 1359.40625 190.335938 1359.027344 188.863281 1358.507812 187.429688 C 1357.992188 185.992188 1357.339844 184.617188 1356.558594 183.308594 C 1354.84375 180.082031 1352.753906 177.121094 1350.292969 174.421875 C 1347.828125 171.726562 1345.070312 169.378906 1342.011719 167.378906 C 1338.417969 164.890625 1334.675781 162.640625 1330.785156 160.640625 C 1329.78125 160.03125 1328.863281 159.316406 1328.03125 158.488281 Z M 1328.03125 158.488281 "/></g></g></g><g clip-rule="nonzero" clip-path="url(#ee02d96aa2)"><g clip-rule="nonzero" clip-path="url(#40239d7a7f)"><g clip-rule="nonzero" clip-path="url(#d521d765b7)"><path style=" stroke:none;fill-rule:nonzero;fill:#3b9e8c;fill-opacity:1;" d="M 1065.3125 340.210938 L 1065.605469 340.339844 L 1065 340.261719 C 1065.683594 339.964844 1066.253906 339.523438 1066.714844 338.941406 C 1067.171875 338.355469 1067.464844 337.695312 1067.59375 336.960938 C 1069.207031 329.574219 1071.527344 322.324219 1072.042969 314.710938 C 1072.152344 312.671875 1072.398438 310.648438 1072.785156 308.640625 C 1074.09375 300.863281 1074.621094 293.035156 1074.371094 285.152344 C 1074.449219 273.203125 1074.820312 261.265625 1075.484375 249.34375 C 1075.972656 246.773438 1076.292969 244.1875 1076.441406 241.578125 C 1075.863281 234.621094 1076.96875 227.617188 1075.476562 220.671875 C 1074.972656 217.207031 1074.734375 213.726562 1074.765625 210.226562 C 1074.667969 208.488281 1074.6875 206.738281 1074.519531 205 C 1074.082031 200.359375 1073.460938 195.734375 1073.117188 191.089844 C 1072.394531 181.210938 1070.851562 171.40625 1070.566406 161.488281 C 1070.523438 160.613281 1070.417969 159.746094 1070.25 158.886719 C 1068.847656 150.859375 1067.246094 142.859375 1066.066406 134.800781 C 1064.675781 126.746094 1062.367188 118.960938 1059.148438 111.445312 C 1057.671875 107.644531 1055.894531 103.992188 1053.8125 100.484375 C 1052.3125 97.613281 1050.371094 95.082031 1047.988281 92.894531 C 1045.601562 90.707031 1042.914062 88.988281 1039.925781 87.742188 C 1038.289062 87.144531 1036.746094 86.292969 1035.164062 85.5625 C 1032.894531 84.523438 1030.527344 83.824219 1028.054688 83.46875 C 1025.585938 83.109375 1023.117188 83.109375 1020.648438 83.464844 C 1018.820312 83.632812 1017.042969 84.03125 1015.320312 84.660156 C 1013.59375 85.289062 1011.980469 86.125 1010.472656 87.171875 C 1008.964844 88.222656 1007.617188 89.445312 1006.425781 90.839844 C 1005.238281 92.238281 1004.246094 93.765625 1003.453125 95.417969 C 1001.5 99.207031 1000.164062 103.203125 999.445312 107.402344 C 998.722656 111.601562 998.648438 115.8125 999.222656 120.035156 C 999.539062 122.34375 999.945312 124.640625 1000.238281 126.957031 C 1001.195312 134.804688 1003.085938 142.417969 1005.90625 149.800781 C 1007.597656 154.144531 1009.308594 158.484375 1010.84375 162.886719 C 1016.703125 179.664062 1023.144531 196.226562 1029.726562 212.730469 C 1032.964844 220.835938 1036.144531 228.96875 1039.265625 237.121094 C 1040.683594 240.636719 1041.886719 244.226562 1042.867188 247.886719 C 1045.03125 256.65625 1047.785156 265.25 1050.121094 273.96875 C 1052.230469 281.839844 1054.242188 289.742188 1056.148438 297.667969 C 1057.519531 303.328125 1058.511719 309.082031 1059.992188 314.714844 C 1061.671875 320.613281 1062.722656 326.625 1063.140625 332.746094 C 1063.1875 335.429688 1063.914062 337.917969 1065.3125 340.210938 Z M 1065.3125 340.210938 "/></g></g></g><g clip-rule="nonzero" clip-path="url(#ac6425cb46)"><g clip-rule="nonzero" clip-path="url(#b8f5b3adbd)"><g clip-rule="nonzero" clip-path="url(#fc06122058)"><path style=" stroke:none;fill-rule:nonzero;fill:#3b9e8c;fill-opacity:1;" d="M 1169.242188 81.097656 C 1165.261719 75.851562 1160.367188 71.683594 1154.558594 68.585938 C 1153.644531 68.105469 1152.671875 67.796875 1151.648438 67.664062 C 1150.625 67.53125 1149.605469 67.582031 1148.597656 67.8125 C 1144.9375 68.761719 1141.246094 69.65625 1137.6875 70.917969 C 1135.472656 71.734375 1133.488281 72.929688 1131.730469 74.503906 C 1129.972656 76.074219 1128.5625 77.917969 1127.507812 80.027344 C 1126.699219 81.582031 1125.996094 83.179688 1125.394531 84.824219 C 1122.820312 92.027344 1121.535156 99.457031 1121.53125 107.109375 C 1121.261719 117.601562 1122.1875 128.070312 1122.582031 138.535156 C 1122.785156 144.046875 1123.6875 149.535156 1124.414062 155.023438 C 1125.183594 160.785156 1126.195312 166.515625 1126.960938 172.277344 C 1127.351562 174.878906 1127.511719 177.492188 1127.433594 180.121094 C 1127.085938 187.386719 1128.34375 194.632812 1127.597656 201.894531 C 1128.246094 210.925781 1128.011719 219.9375 1126.890625 228.921875 C 1126.746094 230.957031 1126.738281 232.996094 1126.863281 235.03125 C 1126.867188 235.617188 1127.054688 236.136719 1127.421875 236.589844 C 1127.828125 237.011719 1128.328125 237.207031 1128.914062 237.167969 C 1129.644531 237.011719 1130.28125 236.679688 1130.828125 236.171875 C 1131.375 235.664062 1131.753906 235.054688 1131.964844 234.339844 C 1133.925781 228.230469 1136.261719 222.269531 1138.976562 216.457031 C 1142.25 209.941406 1145.011719 203.21875 1147.269531 196.285156 C 1147.5625 195.460938 1147.90625 194.660156 1148.304688 193.882812 C 1154.371094 179.972656 1158.730469 165.460938 1163.371094 151.039062 C 1164.515625 148.050781 1165.394531 144.988281 1166.019531 141.851562 C 1166.992188 136.410156 1168.304688 131.054688 1169.949219 125.78125 C 1170.273438 124.359375 1170.484375 122.917969 1170.582031 121.460938 C 1171.101562 116.535156 1171.683594 111.613281 1172.054688 106.675781 C 1172.664062 99.378906 1172.175781 92.15625 1170.582031 85.007812 C 1170.207031 83.679688 1169.761719 82.375 1169.242188 81.097656 Z M 1169.242188 81.097656 "/></g></g></g><g clip-rule="nonzero" clip-path="url(#ca1be4b8d4)"><g clip-rule="nonzero" clip-path="url(#07a9d30e8b)"><g clip-rule="nonzero" clip-path="url(#ae7e859de8)"><path style=" stroke:none;fill-rule:nonzero;fill:#3b9e8c;fill-opacity:1;" d="M 1248.472656 336.074219 L 1248.546875 335.945312 C 1247.796875 335.496094 1247.046875 335.054688 1246.304688 334.597656 C 1242.457031 332.183594 1238.355469 330.355469 1233.992188 329.105469 C 1229.628906 327.855469 1225.179688 327.238281 1220.640625 327.246094 C 1217.160156 327.25 1213.679688 326.835938 1210.199219 326.703125 C 1208.746094 326.609375 1207.300781 326.6875 1205.867188 326.933594 C 1198.75 328.367188 1191.628906 329.792969 1184.546875 331.429688 C 1176.914062 333.199219 1169.128906 334.539062 1162.25 338.691406 C 1160.675781 339.449219 1159.0625 340.097656 1157.40625 340.648438 C 1154.972656 341.617188 1152.597656 342.714844 1150.28125 343.9375 C 1140.671875 349.421875 1131.847656 356.097656 1122.71875 362.304688 C 1120.078125 364.140625 1117.703125 366.265625 1115.585938 368.6875 C 1114.71875 369.464844 1113.792969 370.164062 1112.804688 370.78125 C 1109.835938 373.121094 1106.878906 375.472656 1103.933594 377.84375 C 1103.460938 378.195312 1103.082031 378.625 1102.792969 379.136719 C 1102.550781 379.617188 1102.332031 380.335938 1102.53125 380.742188 C 1102.921875 381.175781 1103.402344 381.347656 1103.976562 381.257812 C 1113.796875 378.671875 1123.53125 375.804688 1133.390625 373.363281 C 1137.617188 372.273438 1141.902344 371.484375 1146.242188 370.992188 C 1153.171875 370.261719 1160.179688 370.480469 1167.078125 369.375 C 1168.816406 369.195312 1170.558594 369.15625 1172.304688 369.257812 C 1175.5 369.277344 1178.714844 369.585938 1181.886719 369.332031 C 1189.738281 368.785156 1197.570312 368.992188 1205.382812 369.949219 C 1206.828125 370.109375 1208.289062 370.117188 1209.734375 370.253906 C 1212.636719 370.410156 1215.523438 370.71875 1218.394531 371.175781 C 1225.890625 372.710938 1233.394531 372.742188 1240.90625 371.273438 C 1245.5 370.390625 1249.828125 368.792969 1253.890625 366.480469 C 1255.796875 365.351562 1257.398438 363.886719 1258.699219 362.09375 C 1260 360.304688 1260.894531 358.328125 1261.375 356.164062 C 1261.550781 355.457031 1261.675781 354.738281 1261.746094 354.015625 C 1261.820312 353.289062 1261.835938 352.5625 1261.804688 351.832031 C 1261.769531 351.105469 1261.679688 350.382812 1261.542969 349.667969 C 1261.402344 348.949219 1261.210938 348.25 1260.96875 347.558594 C 1260.726562 346.871094 1260.4375 346.207031 1260.097656 345.558594 C 1259.761719 344.914062 1259.375 344.296875 1258.949219 343.707031 C 1258.519531 343.117188 1258.050781 342.558594 1257.539062 342.039062 C 1257.03125 341.515625 1256.484375 341.035156 1255.90625 340.59375 C 1253.570312 338.914062 1250.964844 337.570312 1248.472656 336.074219 Z M 1248.472656 336.074219 "/></g></g></g><g clip-rule="nonzero" clip-path="url(#1c8d709f3f)"><g clip-rule="nonzero" clip-path="url(#0ab202a2e6)"><g clip-rule="nonzero" clip-path="url(#af2e58f742)"><path style=" stroke:none;fill-rule:nonzero;fill:#3b9e8c;fill-opacity:1;" d="M 1095.679688 40.621094 C 1102.898438 34.335938 1105.203125 28.441406 1103.714844 21.234375 C 1103.613281 20.582031 1103.417969 19.957031 1103.128906 19.363281 C 1102.84375 18.769531 1102.476562 18.226562 1102.027344 17.742188 C 1101.582031 17.253906 1101.074219 16.84375 1100.503906 16.507812 C 1099.933594 16.167969 1099.328125 15.921875 1098.6875 15.765625 C 1096.730469 15.179688 1094.734375 14.933594 1092.695312 15.027344 C 1086.578125 15.746094 1080.824219 17.585938 1075.429688 20.554688 C 1073.785156 21.332031 1072.574219 22.539062 1071.789062 24.179688 C 1070.882812 26.011719 1070.28125 27.941406 1069.992188 29.964844 C 1069.699219 31.988281 1069.730469 34.007812 1070.085938 36.023438 C 1070.132812 36.605469 1070.265625 37.164062 1070.488281 37.707031 C 1070.714844 38.246094 1071.015625 38.738281 1071.394531 39.183594 C 1071.769531 39.628906 1072.207031 40.003906 1072.707031 40.3125 C 1073.203125 40.621094 1073.734375 40.84375 1074.300781 40.984375 C 1077.667969 41.84375 1081.070312 42.53125 1084.507812 43.046875 C 1086.457031 43.417969 1088.402344 43.390625 1090.339844 42.96875 C 1092.28125 42.550781 1094.058594 41.765625 1095.679688 40.621094 Z M 1095.679688 40.621094 "/></g></g></g><g clip-rule="nonzero" clip-path="url(#8e5353daa4)"><g clip-rule="nonzero" clip-path="url(#675a2db2ad)"><g clip-rule="nonzero" clip-path="url(#c4109bec11)"><path style=" stroke:none;fill-rule:nonzero;fill:#3b9e8c;fill-opacity:1;" d="M 1278.691406 315.152344 C 1280.464844 313.191406 1281.632812 310.917969 1282.1875 308.332031 C 1282.457031 306.851562 1282.253906 305.441406 1281.574219 304.097656 C 1280.269531 301.792969 1278.582031 299.808594 1276.511719 298.152344 C 1276.042969 297.804688 1275.527344 297.546875 1274.964844 297.386719 C 1274.472656 297.269531 1273.976562 297.199219 1273.472656 297.171875 C 1272.964844 297.148438 1272.464844 297.167969 1271.964844 297.234375 C 1271.460938 297.304688 1270.972656 297.417969 1270.492188 297.574219 C 1270.011719 297.734375 1269.550781 297.933594 1269.109375 298.175781 C 1268.667969 298.421875 1268.25 298.703125 1267.859375 299.023438 C 1267.46875 299.34375 1267.113281 299.699219 1266.785156 300.085938 C 1266.460938 300.472656 1266.175781 300.882812 1265.925781 301.324219 C 1265.675781 301.765625 1265.472656 302.222656 1265.308594 302.699219 C 1264.859375 304.695312 1264.6875 306.710938 1264.785156 308.75 C 1264.964844 310.503906 1265.519531 312.125 1266.449219 313.621094 C 1266.773438 314.109375 1267.144531 314.554688 1267.566406 314.960938 C 1267.988281 315.371094 1268.445312 315.726562 1268.945312 316.035156 C 1269.441406 316.34375 1269.96875 316.59375 1270.519531 316.789062 C 1271.070312 316.984375 1271.636719 317.117188 1272.21875 317.191406 C 1272.800781 317.261719 1273.382812 317.273438 1273.964844 317.21875 C 1274.546875 317.167969 1275.117188 317.050781 1275.675781 316.875 C 1276.234375 316.699219 1276.769531 316.46875 1277.277344 316.175781 C 1277.785156 315.886719 1278.253906 315.546875 1278.691406 315.152344 Z M 1278.691406 315.152344 "/></g></g></g><g clip-rule="nonzero" clip-path="url(#bf943b1005)"><g clip-rule="nonzero" clip-path="url(#8b0dda273d)"><g clip-rule="nonzero" clip-path="url(#24b89e26dc)"><path style=" stroke:none;fill-rule:nonzero;fill:#3b9e8c;fill-opacity:1;" d="M 956.195312 468.980469 C 956.203125 469.125 956.242188 469.261719 956.308594 469.394531 C 956.375 469.523438 956.460938 469.636719 956.574219 469.730469 C 956.683594 469.824219 956.808594 469.894531 956.945312 469.9375 C 957.085938 469.984375 957.226562 470 957.375 469.988281 L 1015.613281 465.34375 L 1020.113281 523.59375 C 1020.132812 523.898438 1020.257812 524.148438 1020.492188 524.34375 C 1020.722656 524.542969 1020.988281 524.628906 1021.292969 524.601562 L 1040.832031 523.042969 C 1040.976562 523.03125 1041.117188 522.992188 1041.246094 522.929688 C 1041.375 522.863281 1041.488281 522.773438 1041.582031 522.664062 C 1041.679688 522.550781 1041.75 522.425781 1041.792969 522.289062 C 1041.839844 522.148438 1041.855469 522.007812 1041.84375 521.859375 L 1035.753906 442.964844 C 1035.742188 442.820312 1035.703125 442.683594 1035.636719 442.550781 C 1035.574219 442.421875 1035.484375 442.308594 1035.375 442.214844 C 1035.261719 442.121094 1035.136719 442.050781 1035 442.007812 C 1034.859375 441.960938 1034.71875 441.945312 1034.574219 441.957031 L 955.6875 448.25 C 955.542969 448.257812 955.40625 448.296875 955.273438 448.363281 C 955.144531 448.429688 955.03125 448.519531 954.9375 448.628906 C 954.84375 448.738281 954.773438 448.863281 954.726562 449.003906 C 954.683594 449.144531 954.667969 449.285156 954.679688 449.429688 Z M 1033.648438 444.234375 L 1039.566406 520.941406 L 1022.21875 522.324219 L 1017.71875 464.074219 C 1017.691406 463.773438 1017.566406 463.523438 1017.335938 463.324219 C 1017.105469 463.128906 1016.839844 463.039062 1016.539062 463.066406 L 958.296875 467.710938 L 956.953125 450.351562 Z M 1033.648438 444.234375 "/></g></g></g><g clip-rule="nonzero" clip-path="url(#b3b925dd52)"><g clip-rule="nonzero" clip-path="url(#98f83b4435)"><g clip-rule="nonzero" clip-path="url(#f6b6a0ae4e)"><path style=" stroke:none;fill-rule:nonzero;fill:#3b9e8c;fill-opacity:1;" d="M 981.347656 506.640625 C 981.335938 506.496094 981.292969 506.359375 981.230469 506.230469 C 981.164062 506.101562 981.074219 505.988281 980.964844 505.894531 C 980.851562 505.800781 980.730469 505.730469 980.589844 505.683594 C 980.453125 505.640625 980.3125 505.621094 980.167969 505.632812 L 901.28125 511.921875 C 901.136719 511.933594 901 511.972656 900.867188 512.039062 C 900.738281 512.105469 900.625 512.191406 900.53125 512.304688 C 900.4375 512.414062 900.367188 512.539062 900.320312 512.679688 C 900.277344 512.816406 900.261719 512.960938 900.273438 513.105469 L 901.78125 532.660156 C 901.796875 532.804688 901.835938 532.941406 901.902344 533.070312 C 901.96875 533.199219 902.054688 533.3125 902.164062 533.40625 C 902.277344 533.5 902.398438 533.570312 902.539062 533.617188 C 902.675781 533.660156 902.816406 533.679688 902.960938 533.667969 L 961.203125 529.023438 L 965.703125 587.273438 C 965.722656 587.578125 965.851562 587.828125 966.082031 588.023438 C 966.3125 588.21875 966.578125 588.304688 966.882812 588.28125 L 986.425781 586.71875 C 986.570312 586.707031 986.710938 586.667969 986.839844 586.601562 C 986.96875 586.535156 987.082031 586.449219 987.175781 586.335938 C 987.273438 586.226562 987.34375 586.101562 987.386719 585.960938 C 987.433594 585.824219 987.449219 585.679688 987.4375 585.535156 Z M 967.808594 586.003906 L 963.304688 527.753906 C 963.285156 527.449219 963.15625 527.199219 962.925781 527.003906 C 962.699219 526.804688 962.429688 526.71875 962.128906 526.746094 L 903.886719 531.390625 L 902.546875 514.027344 L 979.238281 507.914062 L 985.164062 584.617188 Z M 967.808594 586.003906 "/></g></g></g><g clip-rule="nonzero" clip-path="url(#121341ea13)"><g clip-rule="nonzero" clip-path="url(#dab885aacf)"><g clip-rule="nonzero" clip-path="url(#911548d46f)"><path style=" stroke:none;fill-rule:nonzero;fill:#3b9e8c;fill-opacity:1;" d="M 926.9375 570.320312 C 926.925781 570.175781 926.886719 570.039062 926.820312 569.90625 C 926.757812 569.777344 926.667969 569.664062 926.558594 569.570312 C 926.445312 569.476562 926.320312 569.40625 926.183594 569.363281 C 926.042969 569.316406 925.902344 569.300781 925.757812 569.3125 L 846.871094 575.601562 C 846.570312 575.628906 846.320312 575.753906 846.121094 575.984375 C 845.925781 576.21875 845.839844 576.484375 845.863281 576.785156 L 847.378906 596.335938 C 847.386719 596.480469 847.425781 596.617188 847.492188 596.75 C 847.558594 596.878906 847.644531 596.992188 847.757812 597.085938 C 847.867188 597.179688 847.992188 597.25 848.128906 597.292969 C 848.269531 597.339844 848.410156 597.355469 848.554688 597.34375 L 906.796875 592.699219 L 911.296875 650.949219 C 911.316406 651.253906 911.441406 651.503906 911.675781 651.699219 C 911.90625 651.894531 912.171875 651.984375 912.476562 651.957031 L 932.015625 650.398438 C 932.316406 650.371094 932.566406 650.246094 932.765625 650.015625 C 932.960938 649.785156 933.050781 649.519531 933.027344 649.214844 Z M 913.402344 649.679688 L 908.902344 591.429688 C 908.875 591.128906 908.75 590.878906 908.519531 590.679688 C 908.289062 590.480469 908.023438 590.394531 907.722656 590.421875 L 849.480469 595.066406 L 848.136719 577.707031 L 924.824219 571.597656 L 930.746094 648.300781 Z M 913.402344 649.679688 "/></g></g></g><g clip-rule="nonzero" clip-path="url(#bdc784c503)"><g clip-rule="nonzero" clip-path="url(#c73fb6efb6)"><g clip-rule="nonzero" clip-path="url(#148f88bd34)"><path style=" stroke:none;fill-rule:nonzero;fill:#3b9e8c;fill-opacity:1;" d="M 872.523438 634 C 872.515625 633.855469 872.476562 633.71875 872.410156 633.589844 C 872.34375 633.457031 872.257812 633.34375 872.148438 633.25 C 872.035156 633.15625 871.910156 633.085938 871.773438 633.042969 C 871.632812 632.996094 871.492188 632.980469 871.347656 632.992188 L 792.464844 639.277344 C 792.164062 639.304688 791.914062 639.429688 791.714844 639.660156 C 791.519531 639.890625 791.433594 640.15625 791.457031 640.460938 L 792.964844 660.015625 C 792.980469 660.160156 793.019531 660.296875 793.085938 660.425781 C 793.152344 660.554688 793.238281 660.667969 793.347656 660.761719 C 793.460938 660.855469 793.582031 660.925781 793.722656 660.96875 C 793.859375 661.015625 794 661.03125 794.144531 661.023438 L 852.398438 656.363281 L 856.898438 714.613281 C 856.921875 714.914062 857.046875 715.164062 857.28125 715.363281 C 857.511719 715.554688 857.777344 715.640625 858.078125 715.621094 L 877.625 714.054688 C 877.925781 714.03125 878.175781 713.90625 878.375 713.675781 C 878.570312 713.441406 878.65625 713.175781 878.632812 712.875 Z M 858.992188 713.359375 L 854.488281 655.109375 C 854.46875 654.804688 854.339844 654.554688 854.109375 654.359375 C 853.882812 654.160156 853.613281 654.074219 853.3125 654.101562 L 795.070312 658.746094 L 793.730469 641.378906 L 870.421875 635.269531 L 876.347656 711.96875 Z M 858.992188 713.359375 "/></g></g></g><g clip-rule="nonzero" clip-path="url(#f36ec0f884)"><g clip-rule="nonzero" clip-path="url(#89507abfcd)"><g clip-rule="nonzero" clip-path="url(#0ffba8b27a)"><path style=" stroke:none;fill-rule:nonzero;fill:#5fcfba;fill-opacity:1;" d="M 581.636719 93.414062 C 584.929688 92.984375 588.25 92.886719 591.5625 93.171875 C 591.769531 93.191406 593.140625 93.328125 591.855469 93.191406 C 590.578125 93.054688 591.941406 93.210938 592.144531 93.242188 C 592.949219 93.351562 593.746094 93.484375 594.542969 93.636719 C 596.132812 93.945312 597.707031 94.332031 599.257812 94.792969 C 600.035156 95.027344 600.804688 95.277344 601.574219 95.542969 C 601.828125 95.632812 602.082031 95.730469 602.335938 95.816406 C 603.753906 96.308594 600.769531 95.167969 602.15625 95.742188 C 603.671875 96.367188 605.167969 97.027344 606.632812 97.765625 C 609.621094 99.269531 612.445312 101.03125 615.191406 102.9375 C 616.164062 103.613281 614.820312 102.695312 614.738281 102.613281 C 615.023438 102.898438 615.4375 103.128906 615.757812 103.375 C 616.4375 103.890625 617.109375 104.414062 617.769531 104.953125 C 619.109375 106.035156 620.410156 107.160156 621.679688 108.320312 C 624.144531 110.574219 626.484375 112.960938 628.707031 115.457031 C 629.292969 116.109375 629.867188 116.773438 630.4375 117.441406 C 630.707031 117.757812 630.96875 118.179688 631.285156 118.449219 C 631.1875 118.367188 630.183594 117.089844 630.945312 118.039062 C 632.089844 119.46875 633.214844 120.910156 634.300781 122.386719 C 636.328125 125.140625 638.238281 127.976562 640.03125 130.890625 C 648.285156 144.273438 654.25 158.949219 661.417969 172.910156 C 668.839844 187.367188 677.707031 201.535156 690.164062 212.207031 C 709.636719 228.894531 734.746094 235.304688 759.59375 238.773438 C 784.433594 242.242188 809.914062 243.238281 834.011719 250.742188 C 835.386719 251.167969 836.753906 251.621094 838.113281 252.09375 C 838.851562 252.351562 839.589844 252.613281 840.324219 252.886719 C 840.570312 252.976562 840.816406 253.070312 841.058594 253.160156 C 842.867188 253.84375 840.027344 252.738281 841.179688 253.207031 C 843.960938 254.332031 846.703125 255.527344 849.386719 256.863281 C 852.199219 258.265625 854.941406 259.800781 857.597656 261.476562 C 858.972656 262.34375 860.453125 263.1875 861.699219 264.226562 C 860.230469 263 862.28125 264.667969 862.691406 264.984375 C 863.640625 265.710938 864.574219 266.457031 865.492188 267.21875 C 868.507812 269.722656 871.359375 272.417969 874.050781 275.269531 C 875.339844 276.632812 876.589844 278.035156 877.804688 279.464844 C 878.03125 279.738281 879.195312 281.074219 877.941406 279.609375 C 878.273438 280 878.585938 280.410156 878.90625 280.808594 C 879.652344 281.75 880.382812 282.699219 881.097656 283.660156 C 885.824219 290.011719 889.910156 296.828125 893.441406 303.90625 C 894.285156 305.605469 895.089844 307.316406 895.882812 309.039062 C 896.636719 310.671875 895.234375 307.523438 895.941406 309.175781 C 896.144531 309.648438 896.355469 310.121094 896.558594 310.59375 C 896.960938 311.542969 897.355469 312.492188 897.746094 313.445312 C 898.480469 315.25 899.414062 316.730469 901.183594 317.695312 C 902.722656 318.53125 904.9375 318.847656 906.621094 318.265625 C 909.980469 317.105469 912.953125 313.097656 911.441406 309.390625 C 904.914062 293.390625 896.316406 278.335938 884.53125 265.601562 C 874.671875 254.949219 862.515625 246.582031 849.089844 241.089844 C 825.132812 231.292969 799.296875 229.3125 773.855469 226.285156 C 761.441406 224.808594 749.003906 223.082031 736.894531 219.898438 C 733.894531 219.109375 730.914062 218.230469 727.972656 217.242188 C 726.636719 216.792969 725.308594 216.320312 723.984375 215.820312 C 723.535156 215.652344 722.242188 215.070312 724.253906 215.929688 C 723.902344 215.78125 723.542969 215.648438 723.1875 215.503906 C 722.476562 215.21875 721.769531 214.921875 721.0625 214.621094 C 715.542969 212.242188 710.230469 209.378906 705.277344 205.964844 C 704.957031 205.746094 704.644531 205.523438 704.324219 205.300781 C 703.132812 204.464844 705.710938 206.335938 704.546875 205.457031 C 703.925781 204.988281 703.300781 204.519531 702.683594 204.039062 C 701.378906 203.015625 700.105469 201.953125 698.867188 200.851562 C 695.929688 198.242188 693.191406 195.417969 690.636719 192.433594 C 690.308594 192.050781 689.953125 191.671875 689.652344 191.261719 C 690.792969 192.8125 689.773438 191.398438 689.542969 191.109375 C 688.910156 190.3125 688.289062 189.503906 687.675781 188.6875 C 686.453125 187.050781 685.273438 185.378906 684.136719 183.679688 C 681.941406 180.402344 679.902344 177.023438 677.964844 173.589844 C 669.84375 159.195312 663.578125 143.847656 655.648438 129.351562 C 642.382812 105.105469 620.027344 81.097656 590.890625 78.855469 C 587.714844 78.609375 584.527344 78.71875 581.371094 79.128906 C 579.402344 79.386719 577.703125 79.878906 576.296875 81.382812 C 575.121094 82.632812 574.246094 84.664062 574.359375 86.40625 C 574.582031 89.914062 577.671875 93.929688 581.636719 93.414062 Z M 581.636719 93.414062 "/></g></g></g><g clip-rule="nonzero" clip-path="url(#c2370dfe96)"><g clip-rule="nonzero" clip-path="url(#e2b123198f)"><g clip-rule="nonzero" clip-path="url(#9552606c83)"><path style=" stroke:none;fill-rule:nonzero;fill:#5fcfba;fill-opacity:1;" d="M 604.410156 187.070312 C 604.511719 187.109375 604.609375 187.144531 604.710938 187.183594 C 604.140625 186.964844 603.574219 186.746094 603.007812 186.523438 C 605.640625 187.558594 608.113281 188.925781 610.414062 190.570312 C 609.921875 190.214844 609.429688 189.855469 608.933594 189.5 C 611.914062 191.664062 614.539062 194.242188 616.882812 197.078125 C 616.488281 196.597656 616.097656 196.121094 615.707031 195.644531 C 619.582031 200.398438 622.621094 205.765625 625.132812 211.347656 C 624.871094 210.765625 624.609375 210.183594 624.347656 209.597656 C 629.925781 222.105469 633.179688 235.5625 639.898438 247.578125 C 645.804688 258.125 654.515625 266.636719 664.554688 273.25 C 674.042969 279.503906 684.839844 283.839844 695.773438 286.824219 C 708.109375 290.1875 720.898438 291.613281 733.617188 292.5625 C 746.773438 293.542969 759.972656 293.902344 773.113281 295.132812 C 774.726562 295.285156 776.34375 295.453125 777.957031 295.632812 C 777.34375 295.5625 776.730469 295.492188 776.117188 295.425781 C 786.679688 296.617188 797.257812 298.445312 807.210938 302.300781 C 806.644531 302.082031 806.074219 301.859375 805.507812 301.640625 C 810.460938 303.585938 815.210938 306.023438 819.550781 309.113281 C 819.054688 308.757812 818.5625 308.402344 818.066406 308.046875 C 821.765625 310.714844 825.121094 313.8125 828.015625 317.335938 C 827.625 316.859375 827.234375 316.382812 826.839844 315.90625 C 829.242188 318.871094 831.28125 322.101562 832.851562 325.582031 C 832.589844 325 832.332031 324.417969 832.070312 323.835938 C 833.230469 326.476562 834.105469 329.222656 834.648438 332.058594 C 834.972656 333.753906 836.628906 335.515625 838.085938 336.308594 C 839.625 337.144531 841.839844 337.460938 843.523438 336.882812 C 845.269531 336.277344 846.933594 335.152344 847.769531 333.441406 C 848.648438 331.648438 848.71875 329.964844 848.34375 328.007812 C 846.535156 318.585938 841.230469 310.03125 834.519531 303.296875 C 827.640625 296.394531 819.152344 291.691406 810.125 288.238281 C 801.914062 285.097656 793.242188 283.347656 784.554688 282.171875 C 774.539062 280.820312 764.457031 280.109375 754.371094 279.539062 C 743.605469 278.933594 732.828125 278.4375 722.105469 277.25 C 722.71875 277.316406 723.332031 277.386719 723.945312 277.457031 C 711.449219 276.050781 699.09375 273.617188 687.339844 269.058594 C 687.910156 269.277344 688.476562 269.496094 689.042969 269.71875 C 681.789062 266.878906 674.832031 263.28125 668.503906 258.71875 C 668.996094 259.074219 669.492188 259.433594 669.984375 259.789062 C 665.21875 256.324219 660.863281 252.332031 657.109375 247.785156 C 657.5 248.261719 657.890625 248.742188 658.285156 249.21875 C 654.378906 244.441406 651.308594 239.128906 648.773438 233.515625 C 649.03125 234.097656 649.292969 234.679688 649.554688 235.265625 C 645.277344 225.703125 642.472656 215.5625 638.238281 205.984375 C 634.34375 197.167969 629.496094 188.667969 622.339844 182.058594 C 618.066406 178.109375 613.234375 175.261719 607.824219 173.199219 C 606.214844 172.585938 603.730469 173.207031 602.34375 174.070312 C 600.882812 174.976562 599.527344 176.714844 599.179688 178.429688 C 598.8125 180.265625 598.960938 182.316406 600.050781 183.910156 C 600.445312 184.386719 600.835938 184.863281 601.226562 185.339844 C 602.140625 186.191406 603.203125 186.765625 604.410156 187.070312 Z M 604.410156 187.070312 "/></g></g></g><g clip-rule="nonzero" clip-path="url(#87c37ad00b)"><g clip-rule="nonzero" clip-path="url(#c54bcbcf3d)"><g clip-rule="nonzero" clip-path="url(#432a2037c0)"><path style=" stroke:none;fill-rule:nonzero;fill:#5fcfba;fill-opacity:1;" d="M 639.136719 318.394531 C 643.566406 324.582031 649.257812 329.542969 655.828125 333.355469 C 661.960938 336.917969 668.78125 339.425781 675.632812 341.191406 C 690.5625 345.042969 706.144531 345.171875 721.175781 348.507812 C 724.523438 349.253906 727.875 349.96875 731.222656 350.707031 C 734.03125 351.332031 736.828125 352.023438 739.519531 353.058594 C 738.949219 352.839844 738.382812 352.621094 737.816406 352.398438 C 739.800781 353.179688 741.691406 354.160156 743.429688 355.402344 C 742.933594 355.046875 742.441406 354.6875 741.949219 354.332031 C 743.644531 355.566406 745.152344 357.019531 746.496094 358.632812 C 746.105469 358.15625 745.710938 357.679688 745.320312 357.199219 C 746.339844 358.441406 747.253906 359.753906 748.097656 361.121094 C 749.039062 362.644531 750.71875 363.855469 752.457031 364.28125 C 754.175781 364.707031 756.449219 364.429688 757.9375 363.410156 C 761.140625 361.21875 762.332031 356.976562 760.226562 353.570312 C 757.0625 348.441406 752.824219 343.945312 747.441406 341.121094 C 742.769531 338.667969 737.582031 337.457031 732.457031 336.367188 C 725.953125 334.980469 719.496094 333.507812 712.90625 332.574219 C 705.660156 331.546875 698.375 330.839844 691.140625 329.722656 C 683.863281 328.601562 676.664062 327.023438 669.785156 324.359375 C 670.351562 324.582031 670.917969 324.800781 671.484375 325.023438 C 666.871094 323.214844 662.445312 320.953125 658.410156 318.066406 C 658.902344 318.421875 659.394531 318.78125 659.890625 319.136719 C 656.878906 316.957031 654.128906 314.453125 651.753906 311.589844 C 652.148438 312.066406 652.539062 312.542969 652.929688 313.019531 C 652.351562 312.3125 651.796875 311.589844 651.265625 310.847656 C 650.175781 309.324219 648.769531 308.144531 646.910156 307.683594 C 645.1875 307.261719 642.914062 307.535156 641.425781 308.554688 C 639.929688 309.582031 638.632812 311.082031 638.265625 312.914062 C 637.898438 314.730469 638.019531 316.835938 639.136719 318.394531 Z M 639.136719 318.394531 "/></g></g></g><g clip-rule="nonzero" clip-path="url(#a34c78d152)"><path style=" stroke:none;fill-rule:nonzero;fill:#5fcfba;fill-opacity:1;" d="M 1116 809.988281 C 1137.722656 767.417969 1135.75 781.144531 1163.136719 745.5 C 1231.507812 656.5 1219.90625 561.863281 1398.882812 561.863281 C 1412.226562 561.863281 1421.210938 562.226562 1426.824219 562.226562 C 1431.21875 562.226562 1435.613281 562.109375 1440.007812 562.074219 L 1440.007812 593.859375 C 1432.660156 593.753906 1425.300781 593.425781 1417.960938 593.425781 C 1274.875 593.425781 1285.9375 601.582031 1211.714844 731.859375 C 1187.882812 773.691406 1169.839844 779.195312 1150.941406 809.988281 Z M 1116 809.988281 "/></g><path style=" stroke:none;fill-rule:nonzero;fill:#3b9e8c;fill-opacity:1;" d="M 1440.007812 644.714844 C 1412.5 652.554688 1308.910156 667.226562 1243.492188 781.730469 C 1238.386719 790.660156 1230.761719 798.757812 1230.355469 809.988281 L 1189.058594 809.988281 C 1191.660156 804.910156 1193.246094 798.859375 1197.027344 794.914062 C 1234.820312 755.453125 1253.308594 695.851562 1292.882812 672.511719 C 1368.179688 628.113281 1352.902344 636.566406 1439.996094 619.285156 Z M 1440.007812 644.714844 "/><path style=" stroke:none;fill-rule:nonzero;fill:#a9f1e3;fill-opacity:1;" d="M 1281.179688 809.988281 C 1282.25 806.554688 1283.753906 803.320312 1285.6875 800.285156 C 1359.277344 713.078125 1363.800781 701.054688 1440.007812 692.386719 L 1440.007812 740.066406 C 1407.582031 746.910156 1375.765625 748.882812 1335.179688 809.988281 Z M 1281.179688 809.988281 "/><path style=" stroke:none;fill-rule:nonzero;fill:#5fcfba;fill-opacity:1;" d="M 289.972656 363.289062 C 293.773438 358.808594 291.878906 352.695312 292.015625 347.363281 C 291.535156 340 292.042969 329.484375 291.019531 321.605469 C 287.476562 308.0625 267.566406 313.449219 270.6875 326.898438 C 270.972656 337.160156 271.136719 347.421875 271.625 357.675781 C 271.910156 363.378906 277.132812 366.941406 282.269531 366.941406 C 285.171875 366.941406 288.03125 365.808594 289.972656 363.300781 Z M 289.972656 363.289062 "/><path style=" stroke:none;fill-rule:nonzero;fill:#5fcfba;fill-opacity:1;" d="M 350.984375 405.523438 C 358.855469 405.523438 364.421875 395.726562 359.34375 389.039062 C 357.820312 386.902344 355.261719 385.105469 352.597656 384.8125 C 342.449219 383.6875 332.277344 382.332031 322.21875 380.582031 C 308.792969 378.464844 305.402344 398.695312 318.75 401.109375 C 328.808594 402.855469 338.984375 404.214844 349.128906 405.335938 C 349.765625 405.453125 350.378906 405.511719 350.984375 405.511719 Z M 350.984375 405.523438 "/><path style=" stroke:none;fill-rule:nonzero;fill:#5fcfba;fill-opacity:1;" d="M 246.851562 403.121094 C 255.308594 403.121094 260.191406 391.746094 254.089844 385.621094 C 248.660156 379.722656 227.292969 381.980469 218.417969 380.582031 C 204.53125 379.832031 203.390625 400.765625 217.277344 401.46875 C 226.894531 401.558594 236.503906 402.613281 246.121094 403.089844 C 246.363281 403.109375 246.609375 403.121094 246.84375 403.121094 Z M 246.851562 403.121094 "/><g clip-rule="nonzero" clip-path="url(#1c0412f877)"><path style=" stroke:none;fill-rule:nonzero;fill:#5fcfba;fill-opacity:1;" d="M 287.613281 413.53125 C 275.082031 413.375 276.546875 427.933594 276.664062 436.730469 C 276.800781 445.65625 273.910156 460.320312 286.65625 461.101562 C 299.59375 461.035156 297.367188 446.796875 297.472656 437.796875 C 297.179688 428.9375 300.511719 414.183594 287.613281 413.53125 Z M 287.613281 413.53125 "/></g><path style=" stroke:none;fill-rule:nonzero;fill:#5fcfba;fill-opacity:1;" d="M 431.203125 165.191406 C 430.507812 156.777344 433.46875 143.640625 423.136719 140.292969 C 412.152344 137.625 408.039062 147.695312 410.257812 156.863281 C 410.472656 165.242188 410.550781 173.628906 410.460938 182.007812 C 410.394531 187.679688 414.796875 192.554688 420.546875 192.738281 C 435.058594 192.417969 430.761719 174.929688 431.210938 165.191406 Z M 431.203125 165.191406 "/><path style=" stroke:none;fill-rule:nonzero;fill:#5fcfba;fill-opacity:1;" d="M 459.519531 227.6875 C 470.40625 228.507812 481.304688 229.140625 492.230469 229.445312 C 492.320312 229.445312 492.398438 229.445312 492.484375 229.445312 C 505.816406 229.445312 506.359375 209.183594 492.875 208.625 C 482.808594 208.34375 472.730469 207.785156 462.675781 207.0625 C 459.335938 206.652344 455.789062 206.644531 452.96875 208.753906 C 444.558594 214.308594 449.421875 228.46875 459.519531 227.667969 Z M 459.519531 227.6875 "/><path style=" stroke:none;fill-rule:nonzero;fill:#5fcfba;fill-opacity:1;" d="M 382.640625 231.621094 C 395.84375 231.621094 396.390625 211.371094 382.90625 210.804688 C 375.457031 209.933594 366.667969 208.753906 359 207.316406 C 352.859375 204.671875 345.136719 208.175781 344.128906 215.0625 C 342.917969 221.945312 348.71875 227.101562 355.171875 227.773438 C 364.136719 229.464844 373.199219 230.636719 382.25 231.613281 C 382.378906 231.613281 382.503906 231.613281 382.632812 231.613281 Z M 382.640625 231.621094 "/><path style=" stroke:none;fill-rule:nonzero;fill:#5fcfba;fill-opacity:1;" d="M 417.328125 235.78125 C 405.589844 237.167969 407.660156 251.472656 406.683594 260.105469 C 406.507812 269.792969 401.722656 284.253906 415.765625 285.71875 C 415.921875 285.71875 416.078125 285.730469 416.234375 285.730469 C 421.660156 285.730469 426.347656 281.0625 426.484375 275.632812 C 427.070312 267.085938 427.550781 258.515625 428.242188 249.980469 C 430.703125 242.910156 425.011719 234.835938 417.328125 235.78125 Z M 417.328125 235.78125 "/><g clip-rule="nonzero" clip-path="url(#aeaf063231)"><g clip-rule="nonzero" clip-path="url(#92cf55d63c)"><g clip-rule="nonzero" clip-path="url(#ee112ec786)"><path style=" stroke:none;fill-rule:nonzero;fill:#a9f1e3;fill-opacity:1;" d="M 93.605469 528.0625 C 89.992188 530.320312 88.464844 534.691406 86.964844 538.488281 C 84.433594 544.902344 82.683594 551.664062 81.6875 558.484375 C 80.703125 565.25 80.558594 572.144531 81.132812 578.957031 C 81.402344 582.164062 81.800781 585.378906 82.710938 588.476562 C 83.796875 592.148438 85.339844 595.777344 88.164062 598.464844 C 89.871094 600.089844 91.609375 601.292969 93.792969 602.234375 C 94.625 602.59375 95.546875 602.667969 96.445312 602.519531 C 96.464844 602.515625 96.480469 602.515625 96.5 602.515625 C 112.53125 600.550781 128.59375 598.792969 144.671875 597.253906 C 160.667969 595.71875 176.683594 594.394531 192.710938 593.285156 C 201.722656 592.65625 210.738281 592.097656 219.757812 591.605469 C 220.210938 591.46875 220.667969 591.332031 221.125 591.195312 C 221.527344 590.945312 221.933594 590.691406 222.335938 590.4375 C 223.230469 589.695312 223.804688 588.675781 224.070312 587.558594 C 224.546875 585.554688 223.804688 583.167969 222.011719 581.996094 C 209.976562 574.125 197.542969 566.898438 184.804688 560.234375 C 172.402344 553.742188 159.6875 547.855469 146.710938 542.601562 C 133.777344 537.359375 120.585938 532.746094 107.199219 528.785156 C 102.808594 527.488281 97.890625 525.386719 93.605469 528.0625 Z M 115.277344 542.445312 C 120.945312 544.300781 126.578125 546.277344 132.164062 548.367188 C 143.375 552.5625 154.410156 557.226562 165.234375 562.335938 C 171.058594 565.085938 176.820312 567.972656 182.515625 570.980469 C 189.117188 574.496094 195.632812 578.179688 202.046875 582.035156 C 191.273438 582.714844 180.507812 583.484375 169.75 584.359375 C 153.734375 585.65625 137.738281 587.167969 121.761719 588.886719 C 113.394531 589.789062 105.039062 590.75 96.683594 591.765625 C 96.414062 591.582031 96.152344 591.390625 95.898438 591.1875 C 95.425781 590.691406 94.988281 590.167969 94.59375 589.609375 C 93.960938 588.492188 93.457031 587.3125 93.046875 586.09375 C 91.929688 582.011719 91.574219 577.6875 91.429688 573.464844 C 91.296875 566.550781 92.011719 559.644531 93.546875 552.90625 C 94.199219 550.269531 94.96875 547.664062 95.871094 545.101562 C 96.769531 542.542969 97.761719 539.964844 98.980469 537.53125 C 98.992188 537.511719 99.003906 537.496094 99.015625 537.476562 C 99.03125 537.480469 99.050781 537.484375 99.066406 537.488281 C 101.628906 538.148438 104.164062 538.964844 106.6875 539.734375 C 109.5625 540.605469 112.425781 541.511719 115.277344 542.445312 Z M 115.277344 542.445312 "/></g></g></g><g clip-rule="nonzero" clip-path="url(#0581af6d48)"><g clip-rule="nonzero" clip-path="url(#6cd5c2786c)"><g clip-rule="nonzero" clip-path="url(#589680269e)"><path style=" stroke:none;fill-rule:nonzero;fill:#a9f1e3;fill-opacity:1;" d="M 186.851562 637.925781 C 172.941406 646.859375 159.128906 655.941406 145.414062 665.167969 C 137.679688 670.367188 129.976562 675.617188 122.304688 680.910156 C 121.65625 681.359375 121.128906 682.15625 120.796875 682.984375 C 119.984375 683.585938 119.308594 684.378906 118.988281 685.351562 C 118.570312 686.621094 118.421875 688.226562 119.117188 689.429688 C 125.292969 700.121094 133.671875 709.402344 143.824219 716.460938 C 148.824219 719.9375 154.25 722.882812 159.886719 725.175781 C 163.28125 726.554688 166.917969 727.730469 170.625 727.101562 C 174.398438 726.457031 177.695312 724.265625 180.289062 721.53125 C 182.699219 718.992188 184.824219 716.21875 186.925781 713.425781 C 188.796875 710.941406 190.617188 708.414062 192.382812 705.855469 C 195.917969 700.738281 199.246094 695.484375 202.410156 690.132812 C 208.902344 679.136719 214.71875 667.742188 220.136719 656.183594 C 225.433594 644.886719 230.351562 633.421875 235.21875 621.9375 C 235.820312 620.519531 236.421875 619.101562 237.023438 617.683594 C 237.855469 615.71875 237.128906 613.316406 235.625 611.925781 C 234.929688 611.28125 234.175781 610.878906 233.253906 610.660156 C 232.214844 610.414062 230.789062 610.367188 229.839844 610.949219 C 215.417969 619.792969 201.085938 628.78125 186.851562 637.925781 Z M 206.738281 659.597656 C 204.761719 663.644531 202.726562 667.660156 200.621094 671.640625 C 194.402344 683.292969 187.542969 694.625 179.71875 705.269531 C 177.652344 708.082031 175.574219 710.945312 173.253906 713.558594 C 172.394531 714.441406 171.480469 715.257812 170.472656 715.964844 C 170.105469 716.160156 169.730469 716.335938 169.34375 716.488281 C 169.058594 716.550781 168.773438 716.597656 168.484375 716.632812 C 168.078125 716.609375 167.679688 716.5625 167.28125 716.492188 C 165.515625 716.003906 163.808594 715.292969 162.136719 714.570312 C 160.464844 713.847656 158.824219 713.050781 157.207031 712.210938 C 151.730469 709.222656 146.628906 705.589844 142.007812 701.398438 C 137.75 697.375 133.945312 692.898438 130.691406 688.03125 C 141.609375 680.507812 152.589844 673.074219 163.636719 665.738281 C 175.210938 658.050781 186.851562 650.46875 198.554688 642.988281 C 204.96875 638.894531 211.398438 634.828125 217.851562 630.796875 C 218.765625 630.226562 219.679688 629.660156 220.589844 629.09375 C 219.460938 631.710938 218.328125 634.332031 217.179688 636.945312 C 213.832031 644.558594 210.382812 652.125 206.738281 659.597656 Z M 206.738281 659.597656 "/></g></g></g><g clip-rule="nonzero" clip-path="url(#11135bf32e)"><g clip-rule="nonzero" clip-path="url(#4648e2764f)"><g clip-rule="nonzero" clip-path="url(#5c136da360)"><path style=" stroke:none;fill-rule:nonzero;fill:#a9f1e3;fill-opacity:1;" d="M 244.675781 632.566406 C 245.257812 648.460938 245.996094 664.347656 246.890625 680.222656 C 247.785156 696.015625 248.824219 711.796875 250.011719 727.566406 C 250.683594 736.457031 251.398438 745.339844 252.15625 754.21875 C 252.171875 754.398438 252.207031 754.582031 252.253906 754.765625 C 252.582031 756.179688 253.535156 757.46875 254.691406 758.300781 C 255.792969 759.089844 256.886719 759.363281 258.183594 759.632812 C 259.851562 759.976562 261.65625 759.839844 263.335938 759.761719 C 267.351562 759.578125 271.355469 758.90625 275.304688 758.195312 C 285.015625 756.457031 294.945312 754.46875 303.683594 749.710938 C 307.320312 747.730469 310.816406 745.4375 314.050781 742.851562 C 317.289062 740.261719 320.214844 737.351562 323 734.28125 C 323.210938 733.878906 323.425781 733.476562 323.636719 733.078125 C 323.914062 732.421875 324.011719 731.75 323.933594 731.058594 C 323.902344 729.769531 323.453125 728.871094 322.75 727.789062 C 314.164062 714.625 305.445312 701.546875 296.589844 688.5625 C 287.730469 675.582031 278.738281 662.691406 269.613281 649.898438 C 264.460938 642.675781 259.269531 635.488281 254.035156 628.332031 C 253.363281 627.414062 252.21875 626.847656 251.152344 626.597656 C 250.050781 626.335938 248.78125 626.355469 247.742188 626.886719 C 246.898438 627.3125 246.171875 627.910156 245.589844 628.65625 C 244.699219 629.8125 244.625 631.1875 244.675781 632.566406 Z M 273.277344 673.496094 C 282.285156 686.371094 291.160156 699.34375 299.898438 712.40625 C 303.929688 718.433594 307.921875 724.484375 311.894531 730.550781 C 308.785156 733.542969 305.398438 736.238281 301.761719 738.574219 C 297.882812 740.917969 293.761719 742.832031 289.441406 744.207031 C 286.113281 745.160156 282.703125 745.878906 279.316406 746.574219 C 275.21875 747.417969 271.097656 748.183594 266.949219 748.726562 C 265.441406 748.925781 263.925781 749.097656 262.40625 749.191406 C 261.167969 734.46875 260.042969 719.738281 259.054688 704.996094 C 257.996094 689.214844 257.085938 673.425781 256.332031 657.625 C 256.199219 654.78125 256.074219 651.9375 255.949219 649.089844 C 261.777344 657.1875 267.554688 665.320312 273.277344 673.496094 Z M 273.277344 673.496094 "/></g></g></g><g mask="url(#d81f1dc7a7)" transform="matrix(1,0,0,1,0,0.000000000000039746)"><g clip-path="url(#0d2177e015)"><path style=" stroke:none;fill-rule:nonzero;fill:#5fcfba;fill-opacity:1;" d="M 0 0 L 1439.648438 0 L 1439.648438 810 L 0 810 Z M 0 0 "/></g><mask id="d81f1dc7a7"><g filter="url(#2ef71b40f3)"><rect x="0" width="1440" y="0" height="809.999993" style="fill:#000000;fill-opacity:0.68;stroke:none;"/></g></mask></g></g></svg>