<svg xmlns="http://www.w3.org/2000/svg" xmlns:xlink="http://www.w3.org/1999/xlink" width="1920" zoomAndPan="magnify" viewBox="0 0 1440 809.999993" height="1080" preserveAspectRatio="xMidYMid meet" version="1.2"><defs/><g id="47f1cd73c1"><rect x="0" width="1440" y="0" height="809.999993" style="fill:#ffffff;fill-opacity:1;stroke:none;"/><rect x="0" width="1440" y="0" height="809.999993" style="fill:#3b9e8c;fill-opacity:1;stroke:none;"/><g style="fill:#ffffff;fill-opacity:1;"><g transform="translate(247.771016, 376.500001)"><path style="stroke:none" d="M 8.265625 0 L 8.265625 -65.671875 L 22.1875 -65.671875 L 22.1875 0 Z M 8.265625 0 "/></g></g><g style="fill:#ffffff;fill-opacity:1;"><g transform="translate(278.225459, 376.500001)"><path style="stroke:none" d="M 53.546875 0 L 39.84375 0 L 39.84375 -29.328125 C 39.84375 -32.953125 39.195312 -35.671875 37.90625 -37.484375 C 36.625 -39.296875 34.578125 -40.203125 31.765625 -40.203125 C 27.929688 -40.203125 25.160156 -38.921875 23.453125 -36.359375 C 21.742188 -33.804688 20.890625 -29.5625 20.890625 -23.625 L 20.890625 0 L 7.1875 0 L 7.1875 -50.21875 L 17.65625 -50.21875 L 19.5 -43.796875 L 20.265625 -43.796875 C 21.785156 -46.222656 23.882812 -48.054688 26.5625 -49.296875 C 29.25 -50.546875 32.300781 -51.171875 35.71875 -51.171875 C 41.550781 -51.171875 45.976562 -49.585938 49 -46.421875 C 52.03125 -43.265625 53.546875 -38.707031 53.546875 -32.75 Z M 53.546875 0 "/></g></g><g style="fill:#ffffff;fill-opacity:1;"><g transform="translate(338.685166, 376.500001)"><path style="stroke:none" d="M 6.609375 -63.203125 C 6.609375 -67.671875 9.09375 -69.90625 14.0625 -69.90625 C 19.03125 -69.90625 21.515625 -67.671875 21.515625 -63.203125 C 21.515625 -61.078125 20.894531 -59.421875 19.65625 -58.234375 C 18.414062 -57.054688 16.550781 -56.46875 14.0625 -56.46875 C 9.09375 -56.46875 6.609375 -58.710938 6.609375 -63.203125 Z M 20.890625 0 L 7.1875 0 L 7.1875 -50.21875 L 20.890625 -50.21875 Z M 20.890625 0 "/></g></g><g style="fill:#ffffff;fill-opacity:1;"><g transform="translate(366.758952, 376.500001)"><path style="stroke:none" d=""/></g></g><g style="fill:#ffffff;fill-opacity:1;"><g transform="translate(390.655359, 376.500001)"><path style="stroke:none" d="M 33.203125 -36.875 L 59.25 -36.875 L 59.25 -2.828125 C 55.03125 -1.453125 51.054688 -0.488281 47.328125 0.0625 C 43.597656 0.625 39.785156 0.90625 35.890625 0.90625 C 25.984375 0.90625 18.414062 -2.003906 13.1875 -7.828125 C 7.957031 -13.660156 5.34375 -22.023438 5.34375 -32.921875 C 5.34375 -43.523438 8.375 -51.789062 14.4375 -57.71875 C 20.507812 -63.65625 28.921875 -66.625 39.671875 -66.625 C 46.410156 -66.625 52.90625 -65.273438 59.15625 -62.578125 L 54.53125 -51.4375 C 49.738281 -53.832031 44.753906 -55.03125 39.578125 -55.03125 C 33.554688 -55.03125 28.734375 -53.007812 25.109375 -48.96875 C 21.484375 -44.925781 19.671875 -39.488281 19.671875 -32.65625 C 19.671875 -25.53125 21.128906 -20.085938 24.046875 -16.328125 C 26.972656 -12.566406 31.222656 -10.6875 36.796875 -10.6875 C 39.703125 -10.6875 42.648438 -10.988281 45.640625 -11.59375 L 45.640625 -25.296875 L 33.203125 -25.296875 Z M 33.203125 -36.875 "/></g></g><g style="fill:#ffffff;fill-opacity:1;"><g transform="translate(457.268839, 376.500001)"><path style="stroke:none" d="M 39.078125 0 L 36.4375 -6.828125 L 36.078125 -6.828125 C 33.765625 -3.921875 31.390625 -1.90625 28.953125 -0.78125 C 26.515625 0.34375 23.332031 0.90625 19.40625 0.90625 C 14.582031 0.90625 10.785156 -0.472656 8.015625 -3.234375 C 5.242188 -5.992188 3.859375 -9.914062 3.859375 -15 C 3.859375 -20.332031 5.722656 -24.265625 9.453125 -26.796875 C 13.179688 -29.328125 18.804688 -30.726562 26.328125 -31 L 35.046875 -31.265625 L 35.046875 -33.46875 C 35.046875 -38.5625 32.4375 -41.109375 27.21875 -41.109375 C 23.207031 -41.109375 18.492188 -39.894531 13.078125 -37.46875 L 8.53125 -46.71875 C 14.3125 -49.738281 20.722656 -51.25 27.765625 -51.25 C 34.503906 -51.25 39.671875 -49.78125 43.265625 -46.84375 C 46.859375 -43.914062 48.65625 -39.457031 48.65625 -33.46875 L 48.65625 0 Z M 35.046875 -23.265625 L 29.734375 -23.09375 C 25.753906 -22.96875 22.789062 -22.242188 20.84375 -20.921875 C 18.894531 -19.609375 17.921875 -17.609375 17.921875 -14.921875 C 17.921875 -11.054688 20.140625 -9.125 24.578125 -9.125 C 27.742188 -9.125 30.28125 -10.035156 32.1875 -11.859375 C 34.09375 -13.679688 35.046875 -16.109375 35.046875 -19.140625 Z M 35.046875 -23.265625 "/></g></g><g style="fill:#ffffff;fill-opacity:1;"><g transform="translate(512.832465, 376.500001)"><path style="stroke:none" d="M 52.15625 0 L 38.453125 0 L 38.453125 -29.328125 C 38.453125 -32.953125 37.84375 -35.671875 36.625 -37.484375 C 35.414062 -39.296875 33.507812 -40.203125 30.90625 -40.203125 C 27.40625 -40.203125 24.859375 -38.914062 23.265625 -36.34375 C 21.679688 -33.769531 20.890625 -29.53125 20.890625 -23.625 L 20.890625 0 L 7.1875 0 L 7.1875 -50.21875 L 17.65625 -50.21875 L 19.5 -43.796875 L 20.265625 -43.796875 C 21.609375 -46.109375 23.550781 -47.914062 26.09375 -49.21875 C 28.644531 -50.519531 31.566406 -51.171875 34.859375 -51.171875 C 42.378906 -51.171875 47.472656 -48.710938 50.140625 -43.796875 L 51.34375 -43.796875 C 52.695312 -46.128906 54.679688 -47.941406 57.296875 -49.234375 C 59.921875 -50.523438 62.878906 -51.171875 66.171875 -51.171875 C 71.859375 -51.171875 76.160156 -49.707031 79.078125 -46.78125 C 82.003906 -43.863281 83.46875 -39.1875 83.46875 -32.75 L 83.46875 0 L 69.71875 0 L 69.71875 -29.328125 C 69.71875 -32.953125 69.109375 -35.671875 67.890625 -37.484375 C 66.679688 -39.296875 64.773438 -40.203125 62.171875 -40.203125 C 58.816406 -40.203125 56.304688 -39.003906 54.640625 -36.609375 C 52.984375 -34.210938 52.15625 -30.410156 52.15625 -25.203125 Z M 52.15625 0 "/></g></g><g style="fill:#ffffff;fill-opacity:1;"><g transform="translate(603.162692, 376.500001)"><path style="stroke:none" d="M 35.125 -51.171875 C 41.0625 -51.171875 45.707031 -48.851562 49.0625 -44.21875 C 52.414062 -39.59375 54.09375 -33.253906 54.09375 -25.203125 C 54.09375 -16.910156 52.359375 -10.484375 48.890625 -5.921875 C 45.429688 -1.367188 40.722656 0.90625 34.765625 0.90625 C 28.867188 0.90625 24.242188 -1.238281 20.890625 -5.53125 L 19.953125 -5.53125 L 17.65625 0 L 7.1875 0 L 7.1875 -69.90625 L 20.890625 -69.90625 L 20.890625 -53.640625 C 20.890625 -51.566406 20.707031 -48.253906 20.34375 -43.703125 L 20.890625 -43.703125 C 24.097656 -48.679688 28.84375 -51.171875 35.125 -51.171875 Z M 30.734375 -40.203125 C 27.347656 -40.203125 24.875 -39.160156 23.3125 -37.078125 C 21.757812 -35.003906 20.953125 -31.570312 20.890625 -26.78125 L 20.890625 -25.296875 C 20.890625 -19.898438 21.691406 -16.035156 23.296875 -13.703125 C 24.898438 -11.367188 27.4375 -10.203125 30.90625 -10.203125 C 33.71875 -10.203125 35.953125 -11.492188 37.609375 -14.078125 C 39.273438 -16.671875 40.109375 -20.4375 40.109375 -25.375 C 40.109375 -30.320312 39.269531 -34.03125 37.59375 -36.5 C 35.914062 -38.96875 33.628906 -40.203125 30.734375 -40.203125 Z M 30.734375 -40.203125 "/></g></g><g style="fill:#ffffff;fill-opacity:1;"><g transform="translate(661.376495, 376.500001)"><path style="stroke:none" d="M 39.078125 0 L 36.4375 -6.828125 L 36.078125 -6.828125 C 33.765625 -3.921875 31.390625 -1.90625 28.953125 -0.78125 C 26.515625 0.34375 23.332031 0.90625 19.40625 0.90625 C 14.582031 0.90625 10.785156 -0.472656 8.015625 -3.234375 C 5.242188 -5.992188 3.859375 -9.914062 3.859375 -15 C 3.859375 -20.332031 5.722656 -24.265625 9.453125 -26.796875 C 13.179688 -29.328125 18.804688 -30.726562 26.328125 -31 L 35.046875 -31.265625 L 35.046875 -33.46875 C 35.046875 -38.5625 32.4375 -41.109375 27.21875 -41.109375 C 23.207031 -41.109375 18.492188 -39.894531 13.078125 -37.46875 L 8.53125 -46.71875 C 14.3125 -49.738281 20.722656 -51.25 27.765625 -51.25 C 34.503906 -51.25 39.671875 -49.78125 43.265625 -46.84375 C 46.859375 -43.914062 48.65625 -39.457031 48.65625 -33.46875 L 48.65625 0 Z M 35.046875 -23.265625 L 29.734375 -23.09375 C 25.753906 -22.96875 22.789062 -22.242188 20.84375 -20.921875 C 18.894531 -19.609375 17.921875 -17.609375 17.921875 -14.921875 C 17.921875 -11.054688 20.140625 -9.125 24.578125 -9.125 C 27.742188 -9.125 30.28125 -10.035156 32.1875 -11.859375 C 34.09375 -13.679688 35.046875 -16.109375 35.046875 -19.140625 Z M 35.046875 -23.265625 "/></g></g><g style="fill:#ffffff;fill-opacity:1;"><g transform="translate(716.940121, 376.500001)"><path style="stroke:none" d="M 35.21875 -51.171875 C 37.070312 -51.171875 38.613281 -51.035156 39.84375 -50.765625 L 38.8125 -37.921875 C 37.707031 -38.210938 36.359375 -38.359375 34.765625 -38.359375 C 30.398438 -38.359375 26.992188 -37.234375 24.546875 -34.984375 C 22.109375 -32.742188 20.890625 -29.601562 20.890625 -25.5625 L 20.890625 0 L 7.1875 0 L 7.1875 -50.21875 L 17.5625 -50.21875 L 19.59375 -41.78125 L 20.265625 -41.78125 C 21.816406 -44.59375 23.914062 -46.859375 26.5625 -48.578125 C 29.21875 -50.304688 32.101562 -51.171875 35.21875 -51.171875 Z M 35.21875 -51.171875 "/></g></g><g style="fill:#ffffff;fill-opacity:1;"><g transform="translate(758.713938, 376.500001)"><path style="stroke:none" d="M 52.15625 0 L 38.453125 0 L 38.453125 -29.328125 C 38.453125 -32.953125 37.84375 -35.671875 36.625 -37.484375 C 35.414062 -39.296875 33.507812 -40.203125 30.90625 -40.203125 C 27.40625 -40.203125 24.859375 -38.914062 23.265625 -36.34375 C 21.679688 -33.769531 20.890625 -29.53125 20.890625 -23.625 L 20.890625 0 L 7.1875 0 L 7.1875 -50.21875 L 17.65625 -50.21875 L 19.5 -43.796875 L 20.265625 -43.796875 C 21.609375 -46.109375 23.550781 -47.914062 26.09375 -49.21875 C 28.644531 -50.519531 31.566406 -51.171875 34.859375 -51.171875 C 42.378906 -51.171875 47.472656 -48.710938 50.140625 -43.796875 L 51.34375 -43.796875 C 52.695312 -46.128906 54.679688 -47.941406 57.296875 -49.234375 C 59.921875 -50.523438 62.878906 -51.171875 66.171875 -51.171875 C 71.859375 -51.171875 76.160156 -49.707031 79.078125 -46.78125 C 82.003906 -43.863281 83.46875 -39.1875 83.46875 -32.75 L 83.46875 0 L 69.71875 0 L 69.71875 -29.328125 C 69.71875 -32.953125 69.109375 -35.671875 67.890625 -37.484375 C 66.679688 -39.296875 64.773438 -40.203125 62.171875 -40.203125 C 58.816406 -40.203125 56.304688 -39.003906 54.640625 -36.609375 C 52.984375 -34.210938 52.15625 -30.410156 52.15625 -25.203125 Z M 52.15625 0 "/></g></g><g style="fill:#ffffff;fill-opacity:1;"><g transform="translate(849.044119, 376.500001)"><path style="stroke:none" d="M 42.765625 0 L 40.921875 -6.421875 L 40.203125 -6.421875 C 38.734375 -4.085938 36.648438 -2.28125 33.953125 -1 C 31.265625 0.269531 28.195312 0.90625 24.75 0.90625 C 18.851562 0.90625 14.40625 -0.671875 11.40625 -3.828125 C 8.414062 -6.992188 6.921875 -11.539062 6.921875 -17.46875 L 6.921875 -50.21875 L 20.625 -50.21875 L 20.625 -20.890625 C 20.625 -17.265625 21.265625 -14.546875 22.546875 -12.734375 C 23.835938 -10.921875 25.890625 -10.015625 28.703125 -10.015625 C 32.535156 -10.015625 35.304688 -11.296875 37.015625 -13.859375 C 38.722656 -16.421875 39.578125 -20.664062 39.578125 -26.59375 L 39.578125 -50.21875 L 53.28125 -50.21875 L 53.28125 0 Z M 42.765625 0 "/></g></g><g style="fill:#ffffff;fill-opacity:1;"><g transform="translate(909.503848, 376.500001)"><path style="stroke:none" d=""/></g></g><g style="fill:#ffffff;fill-opacity:1;"><g transform="translate(933.400254, 376.500001)"><path style="stroke:none" d="M 66.53125 0 L 48.828125 0 L 20.265625 -49.6875 L 19.859375 -49.6875 C 20.421875 -40.90625 20.703125 -34.644531 20.703125 -30.90625 L 20.703125 0 L 8.265625 0 L 8.265625 -65.671875 L 25.828125 -65.671875 L 54.359375 -16.484375 L 54.671875 -16.484375 C 54.222656 -25.023438 54 -31.0625 54 -34.59375 L 54 -65.671875 L 66.53125 -65.671875 Z M 66.53125 0 "/></g></g><g style="fill:#ffffff;fill-opacity:1;"><g transform="translate(1008.18881, 376.500001)"><path style="stroke:none" d="M 39.078125 0 L 36.4375 -6.828125 L 36.078125 -6.828125 C 33.765625 -3.921875 31.390625 -1.90625 28.953125 -0.78125 C 26.515625 0.34375 23.332031 0.90625 19.40625 0.90625 C 14.582031 0.90625 10.785156 -0.472656 8.015625 -3.234375 C 5.242188 -5.992188 3.859375 -9.914062 3.859375 -15 C 3.859375 -20.332031 5.722656 -24.265625 9.453125 -26.796875 C 13.179688 -29.328125 18.804688 -30.726562 26.328125 -31 L 35.046875 -31.265625 L 35.046875 -33.46875 C 35.046875 -38.5625 32.4375 -41.109375 27.21875 -41.109375 C 23.207031 -41.109375 18.492188 -39.894531 13.078125 -37.46875 L 8.53125 -46.71875 C 14.3125 -49.738281 20.722656 -51.25 27.765625 -51.25 C 34.503906 -51.25 39.671875 -49.78125 43.265625 -46.84375 C 46.859375 -43.914062 48.65625 -39.457031 48.65625 -33.46875 L 48.65625 0 Z M 35.046875 -23.265625 L 29.734375 -23.09375 C 25.753906 -22.96875 22.789062 -22.242188 20.84375 -20.921875 C 18.894531 -19.609375 17.921875 -17.609375 17.921875 -14.921875 C 17.921875 -11.054688 20.140625 -9.125 24.578125 -9.125 C 27.742188 -9.125 30.28125 -10.035156 32.1875 -11.859375 C 34.09375 -13.679688 35.046875 -16.109375 35.046875 -19.140625 Z M 35.046875 -23.265625 "/></g></g><g style="fill:#ffffff;fill-opacity:1;"><g transform="translate(1063.752482, 376.500001)"><path style="stroke:none" d="M 53.546875 0 L 39.84375 0 L 39.84375 -29.328125 C 39.84375 -32.953125 39.195312 -35.671875 37.90625 -37.484375 C 36.625 -39.296875 34.578125 -40.203125 31.765625 -40.203125 C 27.929688 -40.203125 25.160156 -38.921875 23.453125 -36.359375 C 21.742188 -33.804688 20.890625 -29.5625 20.890625 -23.625 L 20.890625 0 L 7.1875 0 L 7.1875 -50.21875 L 17.65625 -50.21875 L 19.5 -43.796875 L 20.265625 -43.796875 C 21.785156 -46.222656 23.882812 -48.054688 26.5625 -49.296875 C 29.25 -50.546875 32.300781 -51.171875 35.71875 -51.171875 C 41.550781 -51.171875 45.976562 -49.585938 49 -46.421875 C 52.03125 -43.265625 53.546875 -38.707031 53.546875 -32.75 Z M 53.546875 0 "/></g></g><g style="fill:#ffffff;fill-opacity:1;"><g transform="translate(1124.212165, 376.500001)"><path style="stroke:none" d="M 28.34375 -10.015625 C 30.738281 -10.015625 33.613281 -10.539062 36.96875 -11.59375 L 36.96875 -1.390625 C 33.550781 0.140625 29.359375 0.90625 24.390625 0.90625 C 18.910156 0.90625 14.921875 -0.476562 12.421875 -3.25 C 9.921875 -6.019531 8.671875 -10.175781 8.671875 -15.71875 L 8.671875 -39.9375 L 2.109375 -39.9375 L 2.109375 -45.734375 L 9.65625 -50.3125 L 13.609375 -60.921875 L 22.375 -60.921875 L 22.375 -50.21875 L 36.4375 -50.21875 L 36.4375 -39.9375 L 22.375 -39.9375 L 22.375 -15.71875 C 22.375 -13.769531 22.921875 -12.332031 24.015625 -11.40625 C 25.109375 -10.476562 26.550781 -10.015625 28.34375 -10.015625 Z M 28.34375 -10.015625 "/></g></g><g style="fill:#ffffff;fill-opacity:1;"><g transform="translate(1164.144353, 376.500001)"><path style="stroke:none" d="M 6.609375 -63.203125 C 6.609375 -67.671875 9.09375 -69.90625 14.0625 -69.90625 C 19.03125 -69.90625 21.515625 -67.671875 21.515625 -63.203125 C 21.515625 -61.078125 20.894531 -59.421875 19.65625 -58.234375 C 18.414062 -57.054688 16.550781 -56.46875 14.0625 -56.46875 C 9.09375 -56.46875 6.609375 -58.710938 6.609375 -63.203125 Z M 20.890625 0 L 7.1875 0 L 7.1875 -50.21875 L 20.890625 -50.21875 Z M 20.890625 0 "/></g></g><g style="fill:#ffffff;fill-opacity:1;"><g transform="translate(573.036624, 504.749995)"><path style="stroke:none" d="M 3.6875 -25.203125 C 3.6875 -33.140625 4.84375 -40.566406 7.15625 -47.484375 C 9.476562 -54.398438 12.828125 -60.460938 17.203125 -65.671875 L 28.4375 -65.671875 C 24.21875 -59.890625 21.03125 -53.539062 18.875 -46.625 C 16.71875 -39.707031 15.640625 -32.597656 15.640625 -25.296875 C 15.640625 -17.953125 16.738281 -10.859375 18.9375 -4.015625 C 21.132812 2.828125 24.269531 9.019531 28.34375 14.5625 L 17.203125 14.5625 C 12.804688 9.46875 9.453125 3.519531 7.140625 -3.28125 C 4.835938 -10.082031 3.6875 -17.390625 3.6875 -25.203125 Z M 3.6875 -25.203125 "/></g></g><g style="fill:#ffffff;fill-opacity:1;"><g transform="translate(604.209756, 504.749995)"><path style="stroke:none" d="M 38 0 L 24.125 0 L 24.125 -38 L 24.265625 -44.25 L 24.484375 -51.078125 C 22.179688 -48.773438 20.578125 -47.265625 19.671875 -46.546875 L 12.125 -40.46875 L 5.4375 -48.828125 L 26.59375 -65.671875 L 38 -65.671875 Z M 38 0 "/></g></g><g style="fill:#ffffff;fill-opacity:1;"><g transform="translate(656.718966, 504.749995)"><path style="stroke:none" d="M 3.234375 -27.890625 C 3.234375 -40.890625 5.976562 -50.5625 11.46875 -56.90625 C 16.96875 -63.257812 25.195312 -66.4375 36.15625 -66.4375 C 39.90625 -66.4375 42.84375 -66.210938 44.96875 -65.765625 L 44.96875 -54.671875 C 42.300781 -55.265625 39.664062 -55.5625 37.0625 -55.5625 C 32.300781 -55.5625 28.414062 -54.84375 25.40625 -53.40625 C 22.394531 -51.96875 20.140625 -49.84375 18.640625 -47.03125 C 17.140625 -44.21875 16.257812 -40.222656 16 -35.046875 L 16.578125 -35.046875 C 19.546875 -40.128906 24.289062 -42.671875 30.8125 -42.671875 C 36.6875 -42.671875 41.285156 -40.828125 44.609375 -37.140625 C 47.929688 -33.460938 49.59375 -28.375 49.59375 -21.875 C 49.59375 -14.863281 47.613281 -9.3125 43.65625 -5.21875 C 39.707031 -1.132812 34.226562 0.90625 27.21875 0.90625 C 22.375 0.90625 18.144531 -0.21875 14.53125 -2.46875 C 10.925781 -4.71875 8.140625 -8 6.171875 -12.3125 C 4.210938 -16.625 3.234375 -21.816406 3.234375 -27.890625 Z M 26.953125 -10.203125 C 29.921875 -10.203125 32.195312 -11.195312 33.78125 -13.1875 C 35.363281 -15.175781 36.15625 -18.015625 36.15625 -21.703125 C 36.15625 -24.898438 35.414062 -27.421875 33.9375 -29.265625 C 32.457031 -31.109375 30.21875 -32.03125 27.21875 -32.03125 C 24.40625 -32.03125 22.003906 -31.113281 20.015625 -29.28125 C 18.023438 -27.457031 17.03125 -25.332031 17.03125 -22.90625 C 17.03125 -19.34375 17.960938 -16.332031 19.828125 -13.875 C 21.703125 -11.425781 24.078125 -10.203125 26.953125 -10.203125 Z M 26.953125 -10.203125 "/></g></g><g style="fill:#ffffff;fill-opacity:1;"><g transform="translate(709.228175, 504.749995)"><path style="stroke:none" d=""/></g></g><g style="fill:#ffffff;fill-opacity:1;"><g transform="translate(733.124582, 504.749995)"><path style="stroke:none" d="M 5.25 -6.421875 C 5.25 -8.941406 5.921875 -10.84375 7.265625 -12.125 C 8.617188 -13.414062 10.582031 -14.0625 13.15625 -14.0625 C 15.644531 -14.0625 17.570312 -13.398438 18.9375 -12.078125 C 20.300781 -10.765625 20.984375 -8.878906 20.984375 -6.421875 C 20.984375 -4.054688 20.289062 -2.191406 18.90625 -0.828125 C 17.53125 0.535156 15.613281 1.21875 13.15625 1.21875 C 10.644531 1.21875 8.695312 0.550781 7.3125 -0.78125 C 5.9375 -2.113281 5.25 -3.992188 5.25 -6.421875 Z M 5.25 -43.53125 C 5.25 -46.039062 5.921875 -47.941406 7.265625 -49.234375 C 8.617188 -50.523438 10.582031 -51.171875 13.15625 -51.171875 C 15.644531 -51.171875 17.570312 -50.507812 18.9375 -49.1875 C 20.300781 -47.875 20.984375 -45.988281 20.984375 -43.53125 C 20.984375 -41.101562 20.285156 -39.222656 18.890625 -37.890625 C 17.492188 -36.554688 15.582031 -35.890625 13.15625 -35.890625 C 10.644531 -35.890625 8.695312 -36.546875 7.3125 -37.859375 C 5.9375 -39.179688 5.25 -41.070312 5.25 -43.53125 Z M 5.25 -43.53125 "/></g></g><g style="fill:#ffffff;fill-opacity:1;"><g transform="translate(759.356728, 504.749995)"><path style="stroke:none" d=""/></g></g><g style="fill:#ffffff;fill-opacity:1;"><g transform="translate(783.253134, 504.749995)"><path style="stroke:none" d="M 49.328125 -37.640625 C 49.328125 -24.703125 46.597656 -15.039062 41.140625 -8.65625 C 35.691406 -2.28125 27.441406 0.90625 16.390625 0.90625 C 12.503906 0.90625 9.554688 0.691406 7.546875 0.265625 L 7.546875 -10.875 C 10.066406 -10.238281 12.703125 -9.921875 15.453125 -9.921875 C 20.097656 -9.921875 23.914062 -10.601562 26.90625 -11.96875 C 29.90625 -13.332031 32.195312 -15.472656 33.78125 -18.390625 C 35.363281 -21.316406 36.273438 -25.335938 36.515625 -30.453125 L 35.984375 -30.453125 C 34.242188 -27.640625 32.234375 -25.664062 29.953125 -24.53125 C 27.679688 -23.394531 24.835938 -22.828125 21.421875 -22.828125 C 15.703125 -22.828125 11.195312 -24.660156 7.90625 -28.328125 C 4.613281 -31.992188 2.96875 -37.09375 2.96875 -43.625 C 2.96875 -50.65625 4.960938 -56.210938 8.953125 -60.296875 C 12.953125 -64.390625 18.398438 -66.4375 25.296875 -66.4375 C 30.140625 -66.4375 34.378906 -65.296875 38.015625 -63.015625 C 41.660156 -60.742188 44.457031 -57.441406 46.40625 -53.109375 C 48.351562 -48.785156 49.328125 -43.628906 49.328125 -37.640625 Z M 25.5625 -55.296875 C 22.6875 -55.296875 20.4375 -54.304688 18.8125 -52.328125 C 17.195312 -50.359375 16.390625 -47.515625 16.390625 -43.796875 C 16.390625 -40.617188 17.125 -38.101562 18.59375 -36.25 C 20.0625 -34.394531 22.296875 -33.46875 25.296875 -33.46875 C 28.109375 -33.46875 30.515625 -34.390625 32.515625 -36.234375 C 34.523438 -38.078125 35.53125 -40.195312 35.53125 -42.59375 C 35.53125 -46.15625 34.59375 -49.160156 32.71875 -51.609375 C 30.851562 -54.066406 28.46875 -55.296875 25.5625 -55.296875 Z M 25.5625 -55.296875 "/></g></g><g style="fill:#ffffff;fill-opacity:1;"><g transform="translate(835.762332, 504.749995)"><path style="stroke:none" d="M 27.5 -25.203125 C 27.5 -17.328125 26.335938 -9.988281 24.015625 -3.1875 C 21.691406 3.613281 18.34375 9.53125 13.96875 14.5625 L 2.828125 14.5625 C 6.867188 9.050781 10 2.875 12.21875 -3.96875 C 14.4375 -10.8125 15.546875 -17.921875 15.546875 -25.296875 C 15.546875 -32.597656 14.46875 -39.707031 12.3125 -46.625 C 10.15625 -53.539062 6.960938 -59.890625 2.734375 -65.671875 L 13.96875 -65.671875 C 18.375 -60.429688 21.726562 -54.34375 24.03125 -47.40625 C 26.34375 -40.476562 27.5 -33.078125 27.5 -25.203125 Z M 27.5 -25.203125 "/></g></g></g></svg>